<svg width="72" height="25" viewBox="0 0 72 25" fill="none" xmlns="http://www.w3.org/2000/svg">
<path d="M19.36 12.09C19.4 15.41 18.27 18.23 15.97 20.55C13.67 22.85 10.85 24.01 7.51 24.03L0.0700002 24.09V0.239998H7.45C10.75 0.239998 13.55 1.39 15.85 3.69C18.15 5.99 19.32 8.79 19.36 12.09ZM15.31 12.12C15.29 9.92 14.52 8.07 13 6.57C11.5 5.05 9.65 4.29 7.45 4.29H4.12V20.01L7.48 19.98C9.68 19.96 11.54 19.2 13.06 17.7C14.58 16.18 15.33 14.32 15.31 12.12ZM46.8934 24H42.8434V0.239998H46.8934V24ZM53.3765 4.98C53.3765 5.66 53.1465 6.24 52.6865 6.72C52.2265 7.18 51.6565 7.41 50.9765 7.41C50.2965 7.41 49.7165 7.18 49.2365 6.72C48.7765 6.24 48.5465 5.66 48.5465 4.98C48.5465 4.3 48.7765 3.73 49.2365 3.27C49.7165 2.81 50.2965 2.58 50.9765 2.58C51.6365 2.58 52.1965 2.82 52.6565 3.3C53.1365 3.76 53.3765 4.32 53.3765 4.98ZM53.0165 24H48.9665V8.43H53.0165V24ZM71.1395 16.41C71.1395 18.65 70.3595 20.55 68.7995 22.11C67.2595 23.67 65.3695 24.45 63.1295 24.45C60.8695 24.45 58.9595 23.68 57.3995 22.14C55.8595 20.58 55.0895 18.67 55.0895 16.41C55.0895 14.17 55.8695 12.28 57.4295 10.74C58.9895 9.18 60.8895 8.4 63.1295 8.4C65.3695 8.4 67.2595 9.18 68.7995 10.74C70.3595 12.28 71.1395 14.17 71.1395 16.41ZM67.0895 16.41C67.0895 15.33 66.6995 14.4 65.9195 13.62C65.1395 12.84 64.2095 12.45 63.1295 12.45C62.0295 12.45 61.0895 12.84 60.3095 13.62C59.5295 14.38 59.1395 15.31 59.1395 16.41C59.1395 17.51 59.5295 18.45 60.3095 19.23C61.0895 20.01 62.0295 20.4 63.1295 20.4C64.2295 20.4 65.1595 20.01 65.9195 19.23C66.6995 18.45 67.0895 17.51 67.0895 16.41Z" fill="white"/>
<path d="M40.7474 24H36.4574L35.5874 21.66C33.9874 23.54 31.9474 24.48 29.4674 24.48C27.2274 24.48 25.3274 23.7 23.7674 22.14C22.2274 20.58 21.4574 18.69 21.4574 16.47C21.4574 14.77 21.9374 13.24 22.8974 11.88C23.8574 10.5 25.1374 9.52 26.7374 8.94C27.6774 8.6 28.5974 8.43 29.4974 8.43C31.1974 8.43 32.7274 8.92 34.0874 9.9C35.4674 10.86 36.4474 12.14 37.0274 13.74L40.7474 24ZM33.4574 16.47C33.4574 15.07 32.8874 13.98 31.7474 13.2C31.0874 12.74 30.3274 12.51 29.4674 12.51C28.0674 12.51 26.9874 13.07 26.2274 14.19C25.7474 14.89 25.5074 15.65 25.5074 16.47C25.5074 17.85 26.0774 18.93 27.2174 19.71C27.9174 20.19 28.6674 20.43 29.4674 20.43C30.5674 20.43 31.5074 20.05 32.2874 19.29C33.0674 18.51 33.4574 17.57 33.4574 16.47Z" fill="#FFC93E"/>
</svg>
