<svg width="100" height="100" viewBox="0 0 100 100" fill="none" xmlns="http://www.w3.org/2000/svg">
<g filter="url(#filter0_b_59_498)">
<circle cx="50" cy="50" r="50" fill="white" fill-opacity="0.5"/>
</g>
<path d="M45 56.6667C44.8527 56.6667 44.7114 56.6081 44.6072 56.504C44.503 56.3998 44.4445 56.2585 44.4445 56.1111V43.8889C44.4445 43.7924 44.4696 43.6975 44.5175 43.6136C44.5653 43.5298 44.6342 43.4599 44.7173 43.4107C44.8004 43.3616 44.8949 43.335 44.9914 43.3335C45.088 43.332 45.1832 43.3557 45.2678 43.4022L56.3789 49.5133C56.466 49.5613 56.5386 49.6318 56.5892 49.7174C56.6398 49.803 56.6665 49.9006 56.6665 50C56.6665 50.0994 56.6398 50.1971 56.5892 50.2827C56.5386 50.3683 56.466 50.4387 56.3789 50.4867L45.2678 56.5978C45.1858 56.6429 45.0937 56.6666 45 56.6667Z" fill="#FFC93E"/>
<path d="M24.4495 77.2245L25.8419 78.6878L21.0999 83.1997L19.6459 81.6715C19.2082 81.2115 18.9286 80.7276 18.8071 80.2197C18.6841 79.7133 18.7163 79.2047 18.9039 78.6939C19.0898 78.1846 19.4283 77.6964 19.9191 77.2294C20.4131 76.7594 20.9221 76.4428 21.4461 76.2795C21.9685 76.1176 22.4856 76.1139 22.9971 76.2683C23.5072 76.4242 23.9913 76.7429 24.4495 77.2245ZM24.7861 78.5983L23.9754 77.7462C23.6024 77.3541 23.2176 77.1012 22.821 76.9873C22.4245 76.8735 22.0263 76.8862 21.6265 77.0254C21.2266 77.1647 20.8338 77.4179 20.4479 77.7851C20.065 78.1493 19.795 78.5254 19.6376 78.9133C19.4787 79.3027 19.4434 79.6922 19.5317 80.0817C19.6184 80.4727 19.8381 80.8534 20.1905 81.2239L21.063 82.1408L24.7861 78.5983Z" fill="black"/>
<path d="M18.2827 68.6876C18.4233 68.9651 18.4987 69.2434 18.5088 69.5225C18.517 69.8026 18.455 70.0598 18.3229 70.2939C18.1889 70.5291 17.9793 70.7189 17.6943 70.8634C17.4434 70.9905 17.215 71.0442 17.0091 71.0244C16.8012 71.0055 16.6107 70.936 16.4376 70.816C16.2645 70.6959 16.1055 70.5472 15.9606 70.3698C15.8129 70.1914 15.6742 70.0073 15.5445 69.8175C15.3755 69.5687 15.2405 69.366 15.1396 69.2094C15.0358 69.0517 14.9428 68.946 14.8605 68.8921C14.7773 68.8364 14.6816 68.8359 14.5732 68.8909L14.5504 68.9024C14.2692 69.045 14.0896 69.2327 14.0118 69.4657C13.933 69.6967 13.9722 69.9671 14.1292 70.2769C14.292 70.5981 14.4899 70.8142 14.723 70.9254C14.9561 71.0366 15.1713 71.0887 15.3685 71.0819L15.4641 71.8361C15.1402 71.8569 14.856 71.8099 14.6115 71.695C14.364 71.5791 14.1535 71.4231 13.98 71.2268C13.8036 71.0295 13.6595 70.8207 13.5478 70.6002C13.4765 70.4596 13.4117 70.2894 13.3534 70.0896C13.2923 69.8889 13.2697 69.677 13.2856 69.4539C13.3006 69.2289 13.3828 69.0069 13.5321 68.7879C13.6815 68.5689 13.9301 68.3712 14.2779 68.195L17.1628 66.7327L17.5038 67.4055L16.9109 67.706L16.9282 67.7402C17.0463 67.7377 17.1865 67.7622 17.3488 67.8137C17.5111 67.8652 17.675 67.9601 17.8406 68.0983C18.0062 68.2365 18.1536 68.4329 18.2827 68.6876ZM17.6263 68.8913C17.4914 68.6252 17.3255 68.4275 17.1285 68.298C16.9305 68.1666 16.7253 68.0963 16.5127 68.087C16.2992 68.0757 16.1012 68.1164 15.9188 68.2088L15.303 68.521C15.3517 68.5321 15.4148 68.5789 15.4925 68.6614C15.5672 68.743 15.6469 68.8411 15.7314 68.956C15.813 69.0699 15.8912 69.1819 15.9662 69.292C16.0382 69.4012 16.0973 69.4895 16.1434 69.5569C16.2549 69.7202 16.3748 69.8648 16.5031 69.9909C16.6287 70.116 16.7654 70.1996 16.9133 70.2416C17.0584 70.2828 17.2164 70.26 17.3875 70.1733C17.6212 70.0548 17.7541 69.8787 17.7862 69.6451C17.8154 69.4105 17.7621 69.1593 17.6263 68.8913Z" fill="black"/>
<path d="M8.64959 61.9578L14.9997 60.3705L15.1826 61.1022L8.83251 62.6896L8.64959 61.9578Z" fill="black"/>
<path d="M14.0955 54.7724L9.19699 55.0943L9.14753 54.3416L14.0461 54.0197L14.0955 54.7724ZM8.35542 54.7652C8.36506 54.9119 8.32341 55.0417 8.23047 55.1546C8.13739 55.2653 8.02069 55.3253 7.88037 55.3345C7.74005 55.3438 7.6165 55.2996 7.50973 55.202C7.40281 55.1022 7.34454 54.979 7.3349 54.8323C7.32526 54.6856 7.36698 54.5569 7.46006 54.4461C7.553 54.3333 7.66963 54.2722 7.80995 54.263C7.95027 54.2538 8.07389 54.299 8.1808 54.3988C8.28758 54.4964 8.34578 54.6185 8.35542 54.7652Z" fill="black"/>
<path d="M14.5032 46.4142C14.4284 46.851 14.2587 47.2164 13.9943 47.5105C13.7302 47.8025 13.3955 48.0088 12.99 48.1296C12.5849 48.2482 12.1324 48.2647 11.6326 48.179C11.1286 48.0926 10.7043 47.9259 10.3597 47.6787C10.0154 47.4295 9.76743 47.1233 9.61568 46.76C9.46429 46.3947 9.42603 45.9936 9.5009 45.5568C9.57577 45.12 9.74524 44.7556 10.0093 44.4636C10.2737 44.1695 10.6095 43.9634 11.0168 43.8451C11.4244 43.7247 11.8802 43.7077 12.3842 43.7941C12.884 43.8798 13.305 44.047 13.6471 44.2959C13.9896 44.5427 14.2365 44.8488 14.3879 45.2141C14.5397 45.5774 14.5781 45.9774 14.5032 46.4142ZM13.8354 46.2997C13.8923 45.9679 13.854 45.6803 13.7206 45.437C13.5873 45.1936 13.3908 44.9967 13.1312 44.8463C12.8716 44.6959 12.5801 44.593 12.2567 44.5375C11.9333 44.4821 11.6232 44.4819 11.3262 44.5369C11.0293 44.5919 10.7763 44.7118 10.5674 44.8965C10.3585 45.0812 10.2256 45.3394 10.1687 45.6712C10.1118 46.003 10.1512 46.2908 10.2866 46.5345C10.4221 46.7783 10.6207 46.9755 10.8824 47.1263C11.144 47.2771 11.4366 47.3802 11.76 47.4356C12.0834 47.491 12.3925 47.4911 12.6874 47.4357C12.9822 47.3803 13.2331 47.2601 13.4399 47.075C13.6467 46.89 13.7785 46.6315 13.8354 46.2997Z" fill="black"/>
<path d="M21.2965 30.1732L20.0357 31.7512L14.922 27.6654L16.2387 26.0175C16.6351 25.5214 17.0766 25.1788 17.5633 24.9895C18.0483 24.7988 18.5566 24.7617 19.0881 24.8782C19.6179 24.9934 20.1475 25.2624 20.6768 25.6854C21.2095 26.111 21.5923 26.5723 21.8252 27.0692C22.0564 27.5649 22.1303 28.0767 22.0467 28.6045C21.9616 29.1309 21.7115 29.6538 21.2965 30.1732ZM19.9811 30.6931L20.7153 29.7742C21.0531 29.3514 21.2515 28.9359 21.3105 28.5275C21.3695 28.1192 21.3028 27.7264 21.1106 27.3492C20.9184 26.972 20.6142 26.6171 20.198 26.2846C19.7852 25.9548 19.376 25.7382 18.9703 25.635C18.5629 25.5304 18.1723 25.5483 17.7983 25.6886C17.4227 25.8276 17.0753 26.0968 16.7561 26.4963L15.9661 27.4851L19.9811 30.6931Z" fill="black"/>
<path d="M27.7157 23.6692L24.7444 19.7614L25.3449 19.3049L28.3161 23.2127L27.7157 23.6692ZM24.5545 18.878C24.4375 18.967 24.3063 19.0038 24.1609 18.9886C24.0171 18.9721 23.9027 18.9078 23.8176 18.7959C23.7325 18.6839 23.7012 18.5565 23.7237 18.4136C23.7479 18.2694 23.8185 18.1528 23.9355 18.0638C24.0526 17.9749 24.1829 17.9386 24.3266 17.9552C24.4721 17.9704 24.5873 18.034 24.6724 18.1459C24.7576 18.2579 24.788 18.3859 24.7638 18.5301C24.7413 18.673 24.6716 18.789 24.5545 18.878Z" fill="black"/>
<path d="M35.6416 21.0876C35.3082 21.2344 35.0026 21.3177 34.725 21.3375C34.4482 21.3592 34.1994 21.3361 33.9785 21.268C33.7605 21.2011 33.5703 21.1102 33.408 20.9954L33.788 20.3672C33.8864 20.4216 34.0066 20.4804 34.1485 20.5437C34.2913 20.6089 34.4627 20.644 34.6628 20.649C34.8657 20.6551 35.1027 20.5985 35.3738 20.4792C35.7365 20.3195 35.9972 20.1 36.1559 19.8206C36.3146 19.5412 36.3115 19.2143 36.1467 18.8399L35.7449 17.9272L35.6864 17.953C35.6718 18.0572 35.6443 18.1904 35.6039 18.3525C35.5646 18.5118 35.4788 18.6765 35.3464 18.8465C35.2152 19.0137 35.0033 19.1617 34.7108 19.2904C34.3481 19.4501 33.9846 19.5077 33.6205 19.4631C33.2583 19.4177 32.9212 19.2681 32.6093 19.0144C32.2993 18.7597 32.0413 18.3984 31.8352 17.9304C31.6326 17.4702 31.5371 17.0338 31.5487 16.6213C31.5595 16.2068 31.668 15.8424 31.8742 15.5282C32.0795 15.212 32.3713 14.9706 32.7496 14.804C33.0422 14.6753 33.2957 14.6218 33.5102 14.6438C33.7258 14.6629 33.9065 14.7138 34.0522 14.7963C34.1991 14.876 34.315 14.9437 34.4001 14.9993L34.4703 14.9684L34.156 14.2547L34.823 13.9611L36.8576 18.5828C37.0276 18.9689 37.0781 19.3215 37.009 19.6406C36.9428 19.9607 36.7873 20.2422 36.5426 20.4849C36.3008 20.7287 36.0005 20.9296 35.6416 21.0876ZM34.5314 18.6291C34.8083 18.5072 35.0144 18.3408 35.1497 18.1299C35.285 17.919 35.35 17.6727 35.3447 17.391C35.3394 17.1094 35.2638 16.8028 35.1179 16.4712C34.9754 16.1475 34.8009 15.8833 34.5943 15.6786C34.3878 15.4738 34.1581 15.3433 33.9051 15.2871C33.6522 15.2308 33.3854 15.2645 33.1045 15.3881C32.812 15.5169 32.6009 15.6983 32.4711 15.9323C32.3433 16.1655 32.2856 16.4284 32.298 16.7209C32.3123 17.0126 32.3865 17.3106 32.5204 17.6148C32.6578 17.9268 32.828 18.1812 33.0311 18.3782C33.2353 18.5723 33.4639 18.6951 33.7171 18.7466C33.9713 18.7953 34.2428 18.7562 34.5314 18.6291Z" fill="black"/>
<path d="M42.9228 16.704L42.0472 11.8737L42.7893 11.7391L43.665 16.5695L42.9228 16.704ZM42.2786 11.0002C42.1339 11.0264 42.0003 10.9998 41.8776 10.9202C41.757 10.8403 41.6841 10.7312 41.6591 10.5928C41.634 10.4544 41.6639 10.3267 41.7487 10.2095C41.8357 10.092 41.9515 10.0201 42.0962 9.99386C42.2408 9.96764 42.3735 9.99448 42.494 10.0744C42.6167 10.1539 42.6906 10.2629 42.7157 10.4013C42.7408 10.5396 42.7098 10.6676 42.6229 10.7851C42.538 10.9023 42.4233 10.974 42.2786 11.0002Z" fill="black"/>
<path d="M51.5448 11.1532L51.5304 11.7923L48.987 11.7352L49.0014 11.0962L51.5448 11.1532ZM49.769 9.93696L50.5231 9.95387L50.4182 14.6317C50.4134 14.8447 50.4407 15.0051 50.5001 15.113C50.5617 15.2188 50.6411 15.291 50.7382 15.3294C50.8376 15.3657 50.9427 15.3851 51.0534 15.3876C51.1365 15.3894 51.2048 15.3867 51.2582 15.3794C51.3117 15.3699 51.3545 15.3624 51.3866 15.3567L51.5248 16.0375C51.4732 16.0555 51.4014 16.0731 51.3094 16.0902C51.2173 16.1095 51.101 16.1175 50.9604 16.1144C50.7474 16.1096 50.5397 16.0591 50.3372 15.9629C50.1369 15.8668 49.9718 15.7235 49.8418 15.533C49.7139 15.3426 49.6532 15.1047 49.6596 14.8193L49.769 9.93696Z" fill="black"/>
<path d="M58.6515 17.2451C58.3517 17.1624 58.0951 17.0309 57.8818 16.8505C57.6691 16.6681 57.5205 16.4492 57.4362 16.1939C57.3524 15.9366 57.353 15.6538 57.438 15.3457C57.5127 15.0746 57.6267 14.8695 57.78 14.7305C57.9338 14.5895 58.1133 14.4953 58.3187 14.448C58.524 14.4008 58.741 14.3832 58.9697 14.3955C59.201 14.4062 59.4305 14.4275 59.6582 14.4593C59.956 14.5016 60.1968 14.5381 60.3806 14.5689C60.567 14.5982 60.7078 14.6006 60.803 14.576C60.9002 14.5519 60.965 14.4814 60.9973 14.3643L61.0041 14.3397C61.0879 14.0357 61.0698 13.7765 60.9498 13.5622C60.832 13.3485 60.6056 13.1955 60.2708 13.1032C59.9237 13.0075 59.6305 13.0084 59.3914 13.1061C59.1524 13.2037 58.969 13.3278 58.8413 13.4782L58.2191 13.0415C58.4216 12.7879 58.6477 12.6093 58.8972 12.5057C59.1494 12.4006 59.4065 12.3499 59.6685 12.3536C59.9331 12.3559 60.1845 12.3898 60.4228 12.4555C60.5748 12.4974 60.7443 12.564 60.9313 12.6554C61.1209 12.7452 61.2929 12.8711 61.4472 13.0329C61.6035 13.1954 61.7124 13.4056 61.774 13.6634C61.8355 13.9213 61.8144 14.2382 61.7108 14.6141L60.8512 17.7321L60.1241 17.5317L60.3007 16.8908L60.2638 16.8806C60.1862 16.9697 60.0737 17.057 59.9264 17.1423C59.7791 17.2277 59.5986 17.2851 59.3849 17.3146C59.1713 17.3441 58.9268 17.3209 58.6515 17.2451ZM58.9425 16.6225C59.2301 16.7017 59.4881 16.7121 59.7164 16.6535C59.9468 16.5954 60.1369 16.4909 60.2868 16.3399C60.4388 16.1896 60.542 16.0158 60.5963 15.8186L60.7798 15.1531C60.7388 15.1815 60.6617 15.1968 60.5484 15.1987C60.4378 15.1991 60.3116 15.192 60.1698 15.1772C60.0306 15.1609 59.8951 15.1434 59.7632 15.1248C59.6339 15.1046 59.5289 15.0889 59.448 15.0776C59.2522 15.0502 59.0645 15.0416 58.8849 15.0517C58.7079 15.0604 58.5541 15.1053 58.4234 15.1864C58.2954 15.266 58.2059 15.3983 58.1549 15.5831C58.0853 15.8358 58.1261 16.0526 58.2773 16.2335C58.4312 16.413 58.6529 16.5426 58.9425 16.6225Z" fill="black"/>
<path d="M70.1119 14.6476L67.0132 20.413L66.3488 20.056L69.4475 14.2905L70.1119 14.6476Z" fill="black"/>
<path d="M77.2979 28.6835L76.8088 28.0118L83.515 26.1023L83.9966 26.7637L80.1195 32.5592L79.6305 31.8874L82.9337 27.0631L82.9036 27.0218L77.2979 28.6835ZM79.5455 27.4267L81.5169 30.1345L80.9485 30.5484L78.9771 27.8405L79.5455 27.4267Z" fill="black"/>
<path d="M81.7739 40.4558C81.657 40.1107 81.6009 39.799 81.6056 39.5207C81.6083 39.2431 81.6532 38.9973 81.7404 38.7833C81.8263 38.572 81.9336 38.3905 82.0622 38.239L82.6546 38.6727C82.5917 38.7659 82.5225 38.8805 82.447 39.0163C82.3695 39.1528 82.3195 39.3205 82.2969 39.5193C82.273 39.7209 82.3085 39.962 82.4035 40.2425C82.5307 40.6178 82.7265 40.8968 82.9908 41.0795C83.2552 41.2621 83.5811 41.2878 83.9685 41.1565L84.913 40.8365L84.8925 40.776C84.7899 40.7522 84.6597 40.7131 84.5018 40.6587C84.3465 40.6055 84.19 40.5056 84.0323 40.3588C83.8773 40.2133 83.7485 39.9892 83.646 39.6865C83.5188 39.3112 83.4934 38.9441 83.5698 38.5853C83.6469 38.2285 83.8255 37.9058 84.1058 37.6174C84.3867 37.331 84.7693 37.1058 85.2536 36.9417C85.7299 36.7803 86.1729 36.7236 86.5828 36.7714C86.9947 36.8186 87.3482 36.9587 87.6431 37.1917C87.94 37.4241 88.1548 37.736 88.2874 38.1275C88.39 38.4302 88.4209 38.6874 88.3802 38.8992C88.3422 39.1123 88.2756 39.2878 88.1806 39.4257C88.0883 39.565 88.0107 39.6745 87.9478 39.7543L87.9724 39.827L88.711 39.5767L88.9448 40.2669L84.1621 41.8873C83.7626 42.0227 83.4069 42.0419 83.0951 41.9451C82.782 41.851 82.5154 41.6714 82.2951 41.4063C82.0734 41.1439 81.8997 40.8271 81.7739 40.4558ZM84.3205 39.566C84.4176 39.8525 84.5652 40.0725 84.7634 40.2258C84.9616 40.3791 85.2012 40.4655 85.4823 40.485C85.7633 40.5046 86.0754 40.4562 86.4185 40.34C86.7534 40.2265 87.032 40.0758 87.2541 39.8881C87.4762 39.7004 87.6264 39.483 87.7047 39.236C87.783 38.989 87.7729 38.7202 87.6744 38.4296C87.5719 38.1269 87.4097 37.9007 87.188 37.7508C86.9669 37.603 86.7102 37.5224 86.4177 37.509C86.1259 37.4977 85.8226 37.5453 85.5077 37.652C85.1849 37.7614 84.9164 37.9086 84.7024 38.0936C84.4911 38.2799 84.3486 38.4969 84.275 38.7445C84.2042 38.9935 84.2193 39.2673 84.3205 39.566Z" fill="black"/>
<path d="M85.5525 50.1308C85.5306 49.6583 85.6159 49.2458 85.8086 48.8935C86.0034 48.5431 86.2849 48.2666 86.653 48.0639C87.0234 47.8633 87.4597 47.7513 87.962 47.7279C88.4643 47.7046 88.9113 47.7755 89.3029 47.9407C89.6967 48.108 90.0088 48.3516 90.2391 48.6715C90.4716 48.9934 90.5982 49.3757 90.6188 49.8184C90.6307 50.0738 90.5998 50.328 90.5263 50.581C90.4527 50.834 90.3249 51.0671 90.1429 51.2803C89.9629 51.4935 89.7193 51.668 89.4121 51.8038C89.1049 51.9397 88.7225 52.0183 88.2649 52.0395L87.9456 52.0544L87.7699 48.2744L88.4211 48.2441L88.5613 51.2579C88.838 51.245 89.0823 51.1782 89.2942 51.0574C89.5063 50.9388 89.6704 50.7754 89.7866 50.5674C89.9028 50.3615 89.9546 50.1223 89.942 49.8499C89.928 49.5498 89.8414 49.2936 89.6823 49.0813C89.5253 48.871 89.326 48.7129 89.0843 48.6068C88.8426 48.5007 88.5866 48.454 88.3163 48.4665L87.8821 48.4867C87.5118 48.5039 87.2008 48.5824 86.9492 48.7221C86.6998 48.8638 86.5135 49.0527 86.3901 49.2888C86.2688 49.5248 86.2152 49.795 86.2294 50.0993C86.2386 50.2973 86.2746 50.4747 86.3373 50.6318C86.4023 50.7909 86.4939 50.9263 86.6122 51.0382C86.7325 51.1499 86.8794 51.2337 87.0526 51.2896L86.8821 52.027C86.6317 51.9619 86.4086 51.8432 86.2129 51.671C86.0193 51.4987 85.8642 51.282 85.7475 51.0208C85.633 50.7595 85.568 50.4628 85.5525 50.1308Z" fill="black"/>
<path d="M88.0154 59.119L85.1426 58.435L85.3173 57.7013L90.0929 58.8383L89.9241 59.5472L89.1779 59.3695L89.1631 59.4317C89.379 59.6014 89.5333 59.8177 89.6262 60.0808C89.7211 60.3443 89.7257 60.6564 89.6398 61.0171C89.5628 61.3404 89.4291 61.6075 89.2387 61.8185C89.0504 62.0299 88.8065 62.1711 88.5071 62.2422C88.2097 62.3137 87.8578 62.3012 87.4516 62.2044L84.4171 61.4819L84.5918 60.7482L87.5766 61.4588C87.9517 61.5482 88.2672 61.5203 88.5229 61.3753C88.7807 61.2308 88.9501 60.9886 89.031 60.6487C89.0868 60.4145 89.0859 60.193 89.0282 59.9844C88.9701 59.7778 88.8562 59.5985 88.6865 59.4464C88.5168 59.2943 88.2931 59.1851 88.0154 59.119Z" fill="black"/>
<path d="M81.0573 69.3267C81.2836 68.9259 81.573 68.6342 81.9257 68.4516C82.2783 68.269 82.6647 68.1936 83.0848 68.2252C83.5049 68.2569 83.9284 68.3931 84.3551 68.6341C84.7893 68.8792 85.1274 69.1753 85.3694 69.5223C85.6123 69.8723 85.7462 70.244 85.7712 70.6374C85.7971 71.0337 85.7011 71.4248 85.4832 71.8107C85.3135 72.1113 85.1049 72.3507 84.8574 72.5291C84.6099 72.7075 84.3425 72.8171 84.0551 72.8579C83.7678 72.8988 83.4801 72.8624 83.192 72.7486L83.5628 72.0918C83.7859 72.1517 84.0213 72.1378 84.269 72.0501C84.5175 71.9653 84.7235 71.7782 84.8869 71.4887C85.0314 71.2327 85.0914 70.9705 85.0667 70.7021C85.0429 70.4366 84.9407 70.182 84.7603 69.9382C84.5806 69.6973 84.3294 69.4857 84.0066 69.3035C83.6763 69.117 83.3594 69.0066 83.0558 68.9722C82.7512 68.9397 82.4772 68.9808 82.2339 69.0954C81.9895 69.2119 81.794 69.4 81.6473 69.6598C81.5509 69.8305 81.4932 70.0022 81.474 70.1749C81.4548 70.3475 81.4736 70.5135 81.5305 70.6729C81.5873 70.8322 81.6822 70.9763 81.815 71.1051L81.4442 71.7619C81.2128 71.5823 81.0373 71.3622 80.9179 71.1014C80.7992 70.8436 80.748 70.5614 80.7644 70.2551C80.7816 69.9516 80.8792 69.6421 81.0573 69.3267Z" fill="black"/>
<path d="M75.1327 74.7003C75.2229 74.6097 75.3108 74.5364 75.3966 74.4805C75.4808 74.423 75.5433 74.3875 75.5839 74.3738L75.9199 74.9787C75.7574 75.0755 75.6311 75.1782 75.5409 75.2869C75.4508 75.3956 75.4074 75.5283 75.4108 75.685C75.4112 75.8417 75.4674 76.0404 75.5795 76.2812L75.7522 76.6514L80.5305 78.8454L79.9534 79.4254L76.2246 77.6266L76.1886 77.6628L78.0056 81.3827L77.4285 81.9627L74.9112 76.5179C74.7976 76.2726 74.7307 76.0422 74.7106 75.8268C74.689 75.6099 74.7141 75.408 74.786 75.221C74.8563 75.0355 74.9719 74.8619 75.1327 74.7003Z" fill="black"/>
<defs>
<filter id="filter0_b_59_498" x="-50" y="-50" width="200" height="200" filterUnits="userSpaceOnUse" color-interpolation-filters="sRGB">
<feFlood flood-opacity="0" result="BackgroundImageFix"/>
<feGaussianBlur in="BackgroundImageFix" stdDeviation="25"/>
<feComposite in2="SourceAlpha" operator="in" result="effect1_backgroundBlur_59_498"/>
<feBlend mode="normal" in="SourceGraphic" in2="effect1_backgroundBlur_59_498" result="shape"/>
</filter>
</defs>
</svg>
