<svg width="23" height="103" viewBox="0 0 23 103" fill="none" xmlns="http://www.w3.org/2000/svg">
<path d="M3.03152 87.9388L11.3137 102.284L19.5959 87.9388L18.5705 87.9388L11.3137 100.508L4.05695 87.9388L3.03152 87.9388Z" fill="#F3F5F6"/>
<path d="M5.26388 87.9388L11.3137 98.4174L17.3636 87.9388L5.26388 87.9388Z" fill="#F3F5F6"/>
<path d="M7.99108 72.1989C7.48729 72.2585 7.09619 72.5005 6.81778 72.9247C6.53937 73.349 6.40017 73.8693 6.40017 74.4858C6.40017 74.9366 6.47308 75.331 6.61892 75.669C6.76475 76.0038 6.96527 76.2656 7.22048 76.4545C7.47569 76.6402 7.7657 76.733 8.09051 76.733C8.36229 76.733 8.59595 76.6683 8.7915 76.5391C8.98374 76.4065 9.14449 76.2375 9.27375 76.032C9.39969 75.8265 9.5041 75.611 9.58696 75.3857C9.6665 75.1603 9.73113 74.9531 9.78085 74.7642L10.0593 73.7301C10.1289 73.465 10.225 73.17 10.3476 72.8452C10.4702 72.517 10.6376 72.2038 10.8497 71.9055C11.0585 71.6039 11.327 71.3553 11.6551 71.1598C11.9833 70.9643 12.386 70.8665 12.8632 70.8665C13.4134 70.8665 13.9106 71.0107 14.3547 71.299C14.7988 71.584 15.1518 72.0017 15.4137 72.5518C15.6755 73.0987 15.8064 73.7633 15.8064 74.5455C15.8064 75.2746 15.6888 75.906 15.4534 76.4396C15.2181 76.9699 14.89 77.3875 14.4691 77.6925C14.0481 77.9941 13.5593 78.1648 13.0024 78.2045L13.0024 76.9318C13.3869 76.8987 13.7051 76.7694 13.957 76.544C14.2056 76.3153 14.3912 76.027 14.5138 75.679C14.6331 75.3277 14.6928 74.9498 14.6928 74.5455C14.6928 74.0748 14.6166 73.6522 14.4641 73.2777C14.3083 72.9032 14.0929 72.6065 13.8178 72.3878C13.5394 72.169 13.2146 72.0597 12.8434 72.0597C12.5053 72.0597 12.2302 72.1541 12.0181 72.343C11.8059 72.532 11.6336 72.7805 11.501 73.0888C11.3684 73.397 11.2524 73.7301 11.153 74.0881L10.7951 75.3409C10.5664 76.1364 10.2399 76.7661 9.81565 77.2301C9.39141 77.6941 8.83625 77.9261 8.15017 77.9261C7.58009 77.9261 7.08293 77.772 6.65869 77.4638C6.23113 77.1522 5.89969 76.7346 5.66437 76.2109C5.42574 75.6839 5.30642 75.0956 5.30642 74.446C5.30642 73.7898 5.42408 73.2064 5.6594 72.696C5.89141 72.1856 6.20959 71.7812 6.61395 71.483C7.0183 71.1813 7.47735 71.0223 7.99108 71.0057L7.99108 72.1989ZM15.7865 65.8961C15.7865 66.612 15.6175 67.2285 15.2794 67.7456C14.9414 68.2626 14.4757 68.6603 13.8824 68.9387C13.2891 69.2172 12.6113 69.3564 11.849 69.3564C11.0735 69.3564 10.389 69.2138 9.79576 68.9288C9.19917 68.6404 8.7335 68.2394 8.39875 67.7257C8.06068 67.2086 7.89165 66.6054 7.89165 65.916C7.89165 65.3791 7.99108 64.8952 8.18994 64.4643C8.3888 64.0334 8.66721 63.6805 9.02517 63.4054C9.38312 63.1303 9.80074 62.9596 10.278 62.8933L10.278 64.0666C9.93 64.1561 9.62176 64.3549 9.35329 64.6632C9.08151 64.9681 8.94562 65.3791 8.94562 65.8961C8.94562 66.3535 9.06494 66.7546 9.30358 67.0993C9.5389 67.4406 9.872 67.7074 10.3029 67.8997C10.7304 68.0886 11.2326 68.1831 11.8093 68.1831C12.3992 68.1831 12.913 68.0903 13.3505 67.9047C13.788 67.7157 14.1277 67.4506 14.3696 67.1092C14.6116 66.7645 14.7326 66.3601 14.7326 65.8961C14.7326 65.5912 14.6795 65.3145 14.5735 65.0659C14.4674 64.8173 14.3149 64.6068 14.1161 64.4345C13.9172 64.2621 13.6786 64.1395 13.4002 64.0666L13.4002 62.8933C13.8509 62.9596 14.2569 63.1236 14.6182 63.3855C14.9762 63.644 15.2612 63.987 15.4733 64.4146C15.6821 64.8388 15.7865 65.3327 15.7865 65.8961ZM15.6274 61.1781L7.99108 61.1781L7.99108 60.0446L9.14449 60.0446L9.14449 59.965C8.76665 59.8258 8.46006 59.5739 8.22474 59.2093C7.98942 58.8448 7.87176 58.4338 7.87176 57.9764C7.87176 57.8902 7.87342 57.7825 7.87673 57.6532C7.88004 57.524 7.88502 57.4262 7.89165 57.3599L9.08483 57.3599C9.07488 57.3997 9.05997 57.4908 9.04008 57.6333C9.01688 57.7725 9.00528 57.92 9.00528 58.0758C9.00528 58.447 9.08317 58.7785 9.23895 59.0701C9.39141 59.3585 9.60353 59.5872 9.87531 59.7562C10.1438 59.9219 10.4504 60.0048 10.7951 60.0048L15.6274 60.0048L15.6274 61.1781ZM15.7865 53.0993C15.7865 53.7886 15.6225 54.3935 15.2943 54.9139C14.9662 55.4309 14.5072 55.8353 13.9172 56.127C13.3273 56.4153 12.6379 56.5595 11.849 56.5595C11.0536 56.5595 10.3592 56.4153 9.76593 56.127C9.17266 55.8353 8.71196 55.4309 8.38383 54.9139C8.05571 54.3935 7.89164 53.7886 7.89164 53.0993C7.89164 52.4099 8.05571 51.8066 8.38383 51.2896C8.71196 50.7692 9.17266 50.3649 9.76593 50.0765C10.3592 49.7849 11.0536 49.639 11.849 49.639C12.6379 49.639 13.3273 49.7849 13.9172 50.0765C14.5072 50.3649 14.9662 50.7692 15.2943 51.2896C15.6225 51.8066 15.7865 52.4099 15.7865 53.0993ZM14.7326 53.0993C14.7326 52.5756 14.5983 52.1447 14.3299 51.8066C14.0614 51.4686 13.7084 51.2183 13.2709 51.0559C12.8334 50.8935 12.3594 50.8123 11.849 50.8123C11.3386 50.8123 10.863 50.8935 10.4222 51.0559C9.98137 51.2183 9.62507 51.4686 9.35329 51.8066C9.08151 52.1447 8.94562 52.5756 8.94562 53.0993C8.94562 53.6229 9.08151 54.0538 9.35329 54.3919C9.62507 54.7299 9.98137 54.9802 10.4222 55.1426C10.863 55.305 11.3386 55.3862 11.849 55.3862C12.3594 55.3862 12.8334 55.305 13.2709 55.1426C13.7084 54.9802 14.0614 54.7299 14.3299 54.3919C14.5983 54.0538 14.7326 53.6229 14.7326 53.0993ZM5.44562 46.6747L15.6274 46.6747L15.6274 47.848L5.44562 47.848L5.44562 46.6747ZM5.44562 43.3524L15.6274 43.3524L15.6274 44.5257L5.44562 44.5257L5.44562 43.3524ZM15.6274 33.9648L15.6274 37.1069L5.44562 37.1069L5.44562 33.8256C5.44562 32.8379 5.64946 31.9928 6.05713 31.2901C6.46148 30.5875 7.04316 30.0489 7.80216 29.6744C8.55784 29.2998 9.46267 29.1126 10.5166 29.1126C11.5772 29.1126 12.4904 29.3015 13.256 29.6793C14.0183 30.0572 14.6049 30.6074 15.0159 31.3299C15.4236 32.0524 15.6274 32.9308 15.6274 33.9648ZM14.5337 35.8739L14.5337 34.0444C14.5337 33.2025 14.3713 32.5049 14.0465 31.9513C13.7217 31.3978 13.2593 30.9852 12.6594 30.7134C12.0595 30.4416 11.3452 30.3058 10.5166 30.3058C9.69467 30.3058 8.98705 30.44 8.39377 30.7085C7.79718 30.9769 7.3398 31.378 7.02161 31.9116C6.70012 32.4452 6.53937 33.1097 6.53937 33.9052L6.53937 35.8739L14.5337 35.8739ZM15.7865 24.1012C15.7865 24.7906 15.6225 25.3955 15.2943 25.9158C14.9662 26.4329 14.5072 26.8372 13.9172 27.1289C13.3272 27.4173 12.6379 27.5614 11.849 27.5614C11.0536 27.5614 10.3592 27.4173 9.76593 27.1289C9.17266 26.8372 8.71196 26.4329 8.38383 25.9158C8.05571 25.3955 7.89164 24.7906 7.89164 24.1012C7.89164 23.4118 8.05571 22.8086 8.38383 22.2915C8.71196 21.7712 9.17266 21.3668 9.76593 21.0785C10.3592 20.7868 11.0536 20.641 11.849 20.641C12.6379 20.641 13.3272 20.7868 13.9172 21.0785C14.5072 21.3668 14.9662 21.7712 15.2943 22.2915C15.6225 22.8086 15.7865 23.4118 15.7865 24.1012ZM14.7326 24.1012C14.7326 23.5775 14.5983 23.1467 14.3299 22.8086C14.0614 22.4705 13.7084 22.2203 13.2709 22.0579C12.8334 21.8955 12.3594 21.8143 11.849 21.8143C11.3386 21.8143 10.863 21.8955 10.4222 22.0579C9.98137 22.2203 9.62507 22.4705 9.35329 22.8086C9.08151 23.1467 8.94562 23.5775 8.94562 24.1012C8.94562 24.6249 9.08151 25.0558 9.35329 25.3938C9.62507 25.7319 9.98137 25.9821 10.4222 26.1445C10.863 26.3069 11.3386 26.3881 11.849 26.3881C12.3594 26.3881 12.8334 26.3069 13.2709 26.1445C13.7084 25.9821 14.0614 25.7319 14.3299 25.3938C14.5983 25.0558 14.7326 24.6249 14.7326 24.1012ZM15.6274 17.3796L7.99107 19.7063L7.99107 18.4734L13.8377 16.8228L13.8377 16.7433L7.99107 15.1126L7.99107 13.8597L13.8178 12.2489L13.8178 12.1694L7.99107 10.5188L7.99107 9.28587L15.6274 11.6126L15.6274 12.766L9.76096 14.4364L9.76096 14.5558L15.6274 16.2262L15.6274 17.3796ZM11.0337 6.56143L15.6274 6.56143L15.6274 7.73473L7.99107 7.73473L7.99107 6.60121L9.18426 6.60121L9.18426 6.50178C8.79647 6.3228 8.48492 6.05102 8.2496 5.68643C8.01096 5.32185 7.89164 4.85121 7.89164 4.2745C7.89164 3.75746 7.9977 3.30504 8.20982 2.91726C8.41863 2.52947 8.73681 2.22786 9.16437 2.01243C9.58861 1.79699 10.1255 1.68927 10.7752 1.68927L15.6274 1.68927L15.6274 2.86257L10.8547 2.86257C10.2548 2.86257 9.78748 3.01835 9.45272 3.3299C9.11465 3.64145 8.94562 4.06901 8.94562 4.61257C8.94562 4.9871 9.02682 5.32185 9.18923 5.61683C9.35163 5.9085 9.58861 6.13885 9.90017 6.30788C10.2117 6.47692 10.5896 6.56143 11.0337 6.56143Z" fill="#F3F5F6"/>
</svg>
