<svg width="42" height="32" viewBox="0 0 42 32" fill="none" xmlns="http://www.w3.org/2000/svg">
<g opacity="0.2" clip-path="url(#clip0_59_623)">
<path d="M19.2001 23.6398C19.2487 24.7755 19.0464 25.9078 18.6076 26.9564C18.1688 28.005 17.5043 28.9439 16.6614 29.7065L16.6547 29.7118C14.9094 31.2593 12.6365 32.0774 10.3054 31.9972H10.3201C8.91101 32.0734 7.50247 31.8383 6.1945 31.3088C4.88653 30.7792 3.71122 29.9682 2.75205 28.9332L2.74672 28.9278C0.823773 26.646 -0.157034 23.7169 0.00405253 20.7372L0.00271919 20.7652C-0.0866443 17.6707 0.488504 14.5931 1.68939 11.7398L1.63605 11.8825C2.59487 9.64538 3.92519 7.58656 5.57072 5.79316L5.55605 5.80916C6.9155 4.33437 8.49074 3.07427 10.2281 2.07183L10.3241 2.02116C11.638 1.26314 13.0093 0.609144 14.4254 0.0651641L14.6334 -0.0055026L18.8121 7.04783C17.0756 7.74843 15.5514 8.88893 14.3894 10.3572L14.3721 10.3798C13.215 11.7581 12.4893 13.4465 12.2854 15.2345L12.2814 15.2772C13.1907 15.2999 14.0849 15.5146 14.9054 15.907C15.7259 16.2995 16.4543 16.8609 17.0427 17.5545L17.0507 17.5638C18.5469 19.2297 19.3208 21.4212 19.2027 23.6572L19.2041 23.6372L19.2001 23.6398ZM41.7974 23.6398C41.8455 24.7757 41.6428 25.9083 41.2038 26.957C40.7649 28.0057 40.1003 28.9449 39.2574 29.7078L39.2507 29.7132C37.5058 31.2612 35.2326 32.0794 32.9014 31.9985H32.9161C31.507 32.0751 30.0983 31.8402 28.7903 31.3106C27.4823 30.7811 26.307 29.9698 25.3481 28.9345L25.3427 28.9278C23.419 26.6459 22.4381 23.7161 22.6001 20.7358L22.5987 20.7638C22.5094 17.6694 23.0845 14.5918 24.2854 11.7385L24.2321 11.8812C25.1904 9.64443 26.5198 7.58568 28.1641 5.79183L28.1494 5.80783C29.5093 4.33301 31.085 3.07291 32.8227 2.0705L32.9187 2.01983C34.2324 1.26127 35.6038 0.607256 37.0201 0.0638307L37.2281 -0.00683594L41.4054 7.0465C39.6687 7.74795 38.1445 8.88937 36.9827 10.3585L36.9654 10.3812C35.8083 11.7594 35.0826 13.4478 34.8787 15.2358L34.8747 15.2785C35.7836 15.3011 36.6775 15.5157 37.4976 15.9082C38.3177 16.3007 39.0456 16.8622 39.6334 17.5558L39.6414 17.5652C41.1392 19.2298 41.9146 21.421 41.7974 23.6572L41.7987 23.6372L41.7974 23.6398Z" fill="#FFC93E"/>
</g>
<defs>
<clipPath id="clip0_59_623">
<rect width="41.3333" height="32" fill="white"/>
</clipPath>
</defs>
</svg>
