<svg width="490" height="428" fill="none" xmlns="http://www.w3.org/2000/svg"><path fill-rule="evenodd" clip-rule="evenodd" d="M0 0h490v428H0V0Zm.766.764h59.718V60.38H.766V.764Zm61.25 0h59.718V60.38H62.016V.764Zm120.968 0h-59.718V60.38h59.718V.764Zm1.532 0h59.718V60.38h-59.718V.764Zm120.968 0h-59.718V60.38h59.718V.764Zm1.532 0h59.718V60.38h-59.718V.764Zm120.968 0h-59.718V60.38h59.718V.764Zm1.532 0h59.718V60.38h-59.718V.764ZM60.484 61.907H.766v59.614h59.718V61.907Zm1.532 0h59.718v59.614H62.016V61.907Zm120.968 0h-59.718v59.614h59.718V61.907Zm1.532 0h59.718v59.614h-59.718V61.907Zm120.968 0h-59.718v59.614h59.718V61.907Zm1.532 0h59.718v59.614h-59.718V61.907Zm120.968 0h-59.718v59.614h59.718V61.907Zm1.532 0h59.718v59.614h-59.718V61.907ZM60.484 123.05H.766v59.614h59.718V123.05Zm1.532 0h59.718v59.614H62.016V123.05Zm120.968 0h-59.718v59.614h59.718V123.05Zm1.532 0h59.718v59.614h-59.718V123.05Zm120.968 0h-59.718v59.614h59.718V123.05Zm1.532 0h59.718v59.614h-59.718V123.05Zm120.968 0h-59.718v59.614h59.718V123.05Zm1.532 0h59.718v59.614h-59.718V123.05ZM60.484 184.193H.766v59.614h59.718v-59.614Zm1.532 0h59.718v59.614H62.016v-59.614Zm120.968 0h-59.718v59.614h59.718v-59.614Zm1.532 0h59.718v59.614h-59.718v-59.614Zm120.968 0h-59.718v59.614h59.718v-59.614Zm1.532 0h59.718v59.614h-59.718v-59.614Zm120.968 0h-59.718v59.614h59.718v-59.614Zm1.532 0h59.718v59.614h-59.718v-59.614ZM60.484 245.336H.766v59.614h59.718v-59.614Zm1.532 0h59.718v59.614H62.016v-59.614Zm120.968 0h-59.718v59.614h59.718v-59.614Zm1.532 0h59.718v59.614h-59.718v-59.614Zm120.968 0h-59.718v59.614h59.718v-59.614Zm1.532 0h59.718v59.614h-59.718v-59.614Zm120.968 0h-59.718v59.614h59.718v-59.614Zm1.532 0h59.718v59.614h-59.718v-59.614ZM60.484 306.479H.766v59.614h59.718v-59.614Zm1.532 0h59.718v59.614H62.016v-59.614Zm120.968 0h-59.718v59.614h59.718v-59.614Zm1.532 0h59.718v59.614h-59.718v-59.614Zm120.968 0h-59.718v59.614h59.718v-59.614Zm1.532 0h59.718v59.614h-59.718v-59.614Zm120.968 0h-59.718v59.614h59.718v-59.614Zm1.532 0h59.718v59.614h-59.718v-59.614ZM60.484 367.621H.766v59.615h59.718v-59.615Zm1.532 0h59.718v59.615H62.016v-59.615Zm120.968 0h-59.718v59.615h59.718v-59.615Zm1.532 0h59.718v59.615h-59.718v-59.615Zm120.968 0h-59.718v59.615h59.718v-59.615Zm1.532 0h59.718v59.615h-59.718v-59.615Zm120.968 0h-59.718v59.615h59.718v-59.615Zm1.532 0h59.718v59.615h-59.718v-59.615Z" fill="url('#paint0_linear_404_369')"/><defs><linearGradient id="paint0_linear_404_369" x1="-68" y1="-35.5" x2="245" y2="428" gradientUnits="userSpaceOnUse"><stop stop-color="#fff"/><stop offset=".657" stop-color="#fff" stop-opacity="0"/></linearGradient></defs></svg>