<svg width="52" height="100" fill="none" xmlns="http://www.w3.org/2000/svg"><path d="M31.454.415c.33-.142.664-.28.999-.415h38.691c.335.135.668.273 1 .415h-40.69ZM23.668 4.564c.216-.14.433-.278.65-.415h54.96c.218.137.435.275.651.415H23.668ZM18.115 8.714c.163-.14.326-.278.49-.415h66.387c.164.137.327.275.49.415H18.115ZM13.8 12.863c.129-.139.258-.277.389-.415h75.22c.13.138.26.276.388.415H13.8ZM10.335 17.012l.315-.415h82.297l.315.415H10.335ZM7.523 21.162l.256-.415h88.04l.255.415H7.523ZM5.247 25.311l.206-.415h92.691c.07.138.138.276.206.415H5.247ZM3.434 29.46l.162-.414H100c.055.138.109.276.162.415H3.433ZM2.033 33.61c.04-.139.081-.277.123-.415h99.286l.122.415H2.033ZM1.01 37.76l.087-.416H102.5l.085.415H1.011ZM.343 41.909l.052-.415h102.808l.051.415H.344ZM.015 46.058c.005-.138.011-.277.018-.415h103.531c.007.138.013.277.018.415H.015ZM.015 50.208 0 49.792h103.597c-.004.139-.009.277-.015.416H.015ZM.343 54.357a51.607 51.607 0 0 1-.048-.415h103.007l-.048.415H.344ZM1.01 58.506a51.514 51.514 0 0 1-.082-.415H102.67a56.35 56.35 0 0 1-.083.415H1.011ZM2.033 62.656l-.119-.415h99.769l-.119.415H2.033ZM3.434 66.805a51.023 51.023 0 0 1-.158-.415h97.045c-.052.139-.104.277-.158.415H3.433ZM5.247 70.954a51.185 51.185 0 0 1-.201-.415h93.505c-.066.14-.133.277-.201.415H5.247ZM7.523 75.104a52.445 52.445 0 0 1-.25-.415h89.051a54.31 54.31 0 0 1-.25.415H7.523ZM10.335 79.253a51.765 51.765 0 0 1-.308-.415H93.57l-.308.415H10.335ZM13.8 83.403a51.489 51.489 0 0 1-.38-.415h76.758l-.38.415H13.8ZM18.115 87.552c-.16-.138-.32-.276-.478-.415H85.96c-.158.14-.318.278-.478.415H18.115ZM23.668 91.701a51.075 51.075 0 0 1-.63-.415h57.521c-.209.14-.419.278-.63.415H23.668ZM31.454 95.85a51.286 51.286 0 0 1-.945-.414h42.579c-.313.141-.628.28-.944.415h-40.69ZM58.385 99.585A52.286 52.286 0 0 1 51.8 100c-2.232 0-4.43-.141-6.587-.415h13.173Z" fill="#3F4147"/></svg>