<svg width="21" height="20" viewBox="0 0 21 20" fill="none" xmlns="http://www.w3.org/2000/svg">
<path fill-rule="evenodd" clip-rule="evenodd" d="M18.0001 3.125C18.0001 2.95924 17.9342 2.80027 17.817 2.68306C17.6998 2.56585 17.5408 2.5 17.3751 2.5H9.87506C9.7093 2.5 9.55033 2.56585 9.43312 2.68306C9.31591 2.80027 9.25006 2.95924 9.25006 3.125C9.25006 3.29076 9.31591 3.44973 9.43312 3.56694C9.55033 3.68415 9.7093 3.75 9.87506 3.75H15.8663L3.18256 16.4325C3.12445 16.4906 3.07835 16.5596 3.0469 16.6355C3.01545 16.7114 2.99927 16.7928 2.99927 16.875C2.99927 16.9572 3.01545 17.0386 3.0469 17.1145C3.07835 17.1904 3.12445 17.2594 3.18256 17.3175C3.24067 17.3756 3.30965 17.4217 3.38558 17.4532C3.4615 17.4846 3.54288 17.5008 3.62506 17.5008C3.70724 17.5008 3.78861 17.4846 3.86454 17.4532C3.94046 17.4217 4.00945 17.3756 4.06756 17.3175L16.7501 4.63375V10.625C16.7501 10.7908 16.8159 10.9497 16.9331 11.0669C17.0503 11.1842 17.2093 11.25 17.3751 11.25C17.5408 11.25 17.6998 11.1842 17.817 11.0669C17.9342 10.9497 18.0001 10.7908 18.0001 10.625V3.125Z" fill="white"></path>
</svg>
