<svg width="72" height="25" fill="none" xmlns="http://www.w3.org/2000/svg"><path d="M19.36 12.09c.04 3.32-1.09 6.14-3.39 8.46-2.3 2.3-5.12 3.46-8.46 3.48l-7.44.06V.24h7.38c3.3 0 6.1 1.15 8.4 3.45 2.3 2.3 3.47 5.1 3.51 8.4Zm-4.05.03c-.02-2.2-.79-4.05-2.31-5.55-1.5-1.52-3.35-2.28-5.55-2.28H4.12v15.72l3.36-.03c2.2-.02 4.06-.78 5.58-2.28 1.52-1.52 2.27-3.38 2.25-5.58ZM46.893 24h-4.05V.24h4.05V24Zm6.483-19.02c0 .68-.23 1.26-.69 1.74-.46.46-1.03.69-1.71.69-.68 0-1.26-.23-1.74-.69-.46-.48-.69-1.06-.69-1.74 0-.68.23-1.25.69-1.71.48-.46 1.06-.69 1.74-.69.66 0 1.22.24 1.68.72.48.46.72 1.02.72 1.68ZM53.017 24h-4.05V8.43h4.05V24Zm18.123-7.59c0 2.24-.78 4.14-2.34 5.7-1.54 1.56-3.43 2.34-5.67 2.34-2.26 0-4.17-.77-5.73-2.31-1.54-1.56-2.31-3.47-2.31-5.73 0-2.24.78-4.13 2.34-5.67 1.56-1.56 3.46-2.34 5.7-2.34s4.13.78 5.67 2.34c1.56 1.54 2.34 3.43 2.34 5.67Zm-4.05 0c0-1.08-.39-2.01-1.17-2.79-.78-.78-1.71-1.17-2.79-1.17-1.1 0-2.04.39-2.82 1.17-.78.76-1.17 1.69-1.17 2.79s.39 2.04 1.17 2.82c.78.78 1.72 1.17 2.82 1.17 1.1 0 2.03-.39 2.79-1.17.78-.78 1.17-1.72 1.17-2.82Z" fill="#fff"/><path d="M40.747 24h-4.29l-.87-2.34c-1.6 1.88-3.64 2.82-6.12 2.82-2.24 0-4.14-.78-5.7-2.34-1.54-1.56-2.31-3.45-2.31-5.67 0-1.7.48-3.23 1.44-4.59.96-1.38 2.24-2.36 3.84-2.94.94-.34 1.86-.51 2.76-.51 1.7 0 3.23.49 4.59 1.47 1.38.96 2.36 2.24 2.94 3.84L40.747 24Zm-7.29-7.53c0-1.4-.57-2.49-1.71-3.27-.66-.46-1.42-.69-2.28-.69-1.4 0-2.48.56-3.24 1.68-.48.7-.72 1.46-.72 2.28 0 1.38.57 2.46 1.71 3.24.7.48 1.45.72 2.25.72 1.1 0 2.04-.38 2.82-1.14.78-.78 1.17-1.72 1.17-2.82Z" fill="#FFC93E"/></svg>