<svg width="115" height="83" fill="none" xmlns="http://www.w3.org/2000/svg"><path fill-rule="evenodd" clip-rule="evenodd" d="M111.808 1.583a1.59 1.59 0 0 0 1.596 1.584A1.59 1.59 0 0 0 115 1.583 1.59 1.59 0 0 0 113.404 0a1.59 1.59 0 0 0-1.596 1.583Zm-15.962 0a1.59 1.59 0 0 0 1.596 1.584 1.59 1.59 0 0 0 1.597-1.584A1.59 1.59 0 0 0 97.442 0a1.59 1.59 0 0 0-1.596 1.583ZM81.481 3.167a1.59 1.59 0 0 1-1.596-1.584A1.59 1.59 0 0 1 81.48 0a1.59 1.59 0 0 1 1.596 1.583 1.59 1.59 0 0 1-1.596 1.584ZM63.923 1.583a1.59 1.59 0 0 0 1.596 1.584 1.59 1.59 0 0 0 1.596-1.584A1.59 1.59 0 0 0 65.52 0a1.59 1.59 0 0 0-1.596 1.583ZM49.558 3.167a1.59 1.59 0 0 1-1.596-1.584A1.59 1.59 0 0 1 49.558 0a1.59 1.59 0 0 1 1.596 1.583 1.59 1.59 0 0 1-1.596 1.584ZM32 1.583a1.59 1.59 0 0 0 1.596 1.584 1.59 1.59 0 0 0 1.596-1.584A1.59 1.59 0 0 0 33.596 0 1.59 1.59 0 0 0 32 1.583ZM113.404 19a1.59 1.59 0 0 1-1.596-1.583 1.59 1.59 0 0 1 1.596-1.584A1.59 1.59 0 0 1 115 17.417 1.59 1.59 0 0 1 113.404 19Zm-17.558-1.583A1.59 1.59 0 0 0 97.442 19a1.59 1.59 0 0 0 1.597-1.583 1.59 1.59 0 0 0-1.597-1.584 1.59 1.59 0 0 0-1.596 1.584ZM81.481 19a1.59 1.59 0 0 1-1.596-1.583 1.59 1.59 0 0 1 1.596-1.584 1.59 1.59 0 0 1 1.596 1.584A1.59 1.59 0 0 1 81.48 19Zm-17.558-1.583A1.59 1.59 0 0 0 65.52 19a1.59 1.59 0 0 0 1.596-1.583 1.59 1.59 0 0 0-1.596-1.584 1.59 1.59 0 0 0-1.596 1.584ZM49.558 19a1.59 1.59 0 0 1-1.596-1.583 1.59 1.59 0 0 1 1.596-1.584 1.59 1.59 0 0 1 1.596 1.584A1.59 1.59 0 0 1 49.558 19ZM32 17.417A1.59 1.59 0 0 0 33.596 19a1.59 1.59 0 0 0 1.596-1.583 1.59 1.59 0 0 0-1.596-1.584A1.59 1.59 0 0 0 32 17.417ZM1.583 3.192a1.59 1.59 0 0 0 1.584-1.596A1.59 1.59 0 0 0 1.583 0 1.59 1.59 0 0 0 0 1.596a1.59 1.59 0 0 0 1.583 1.596Zm0 15.962a1.59 1.59 0 0 0 1.584-1.596 1.59 1.59 0 0 0-1.584-1.597A1.59 1.59 0 0 0 0 17.558a1.59 1.59 0 0 0 1.583 1.596Zm1.584 14.365a1.59 1.59 0 0 1-1.584 1.596A1.59 1.59 0 0 1 0 33.52a1.59 1.59 0 0 1 1.583-1.596 1.59 1.59 0 0 1 1.584 1.596ZM1.583 51.077a1.59 1.59 0 0 0 1.584-1.596 1.59 1.59 0 0 0-1.584-1.596A1.59 1.59 0 0 0 0 49.48a1.59 1.59 0 0 0 1.583 1.596Zm1.584 14.365a1.59 1.59 0 0 1-1.584 1.597A1.59 1.59 0 0 1 0 65.442a1.59 1.59 0 0 1 1.583-1.596 1.59 1.59 0 0 1 1.584 1.596ZM1.583 83a1.59 1.59 0 0 0 1.584-1.596 1.59 1.59 0 0 0-1.584-1.596A1.59 1.59 0 0 0 0 81.404 1.59 1.59 0 0 0 1.583 83ZM19 1.596a1.59 1.59 0 0 1-1.583 1.596 1.59 1.59 0 0 1-1.584-1.596A1.59 1.59 0 0 1 17.417 0 1.59 1.59 0 0 1 19 1.596Zm-1.583 17.558A1.59 1.59 0 0 0 19 17.558a1.59 1.59 0 0 0-1.583-1.597 1.59 1.59 0 0 0-1.584 1.597 1.59 1.59 0 0 0 1.584 1.596ZM19 33.519a1.59 1.59 0 0 1-1.583 1.596 1.59 1.59 0 0 1-1.584-1.596 1.59 1.59 0 0 1 1.584-1.596A1.59 1.59 0 0 1 19 33.52Zm-1.583 17.558A1.59 1.59 0 0 0 19 49.48a1.59 1.59 0 0 0-1.583-1.596 1.59 1.59 0 0 0-1.584 1.596 1.59 1.59 0 0 0 1.584 1.596ZM19 65.442a1.59 1.59 0 0 1-1.583 1.597 1.59 1.59 0 0 1-1.584-1.597 1.59 1.59 0 0 1 1.584-1.596A1.59 1.59 0 0 1 19 65.442ZM17.417 83A1.59 1.59 0 0 0 19 81.404a1.59 1.59 0 0 0-1.583-1.596 1.59 1.59 0 0 0-1.584 1.596A1.59 1.59 0 0 0 17.417 83Z" fill="#fff"/></svg>