<svg width="125" height="105" fill="none" xmlns="http://www.w3.org/2000/svg"><path d="m35.205 85.59-1.123.648-5.79-6.356 1.123-.648 4.343 4.905-1.569-6.507 1.04-.6 4.852 4.611-2.078-6.213 1.081-.625 2.61 8.193-1.122.648-4.984-4.744 1.617 6.688Zm4.76-6.282a3.078 3.078 0 0 1-.322-2.405c.106-.394.285-.756.538-1.086.255-.342.574-.622.955-.842a3.05 3.05 0 0 1 1.196-.4c.42-.058.822-.032 1.209.078.39.098.751.277 1.086.537.337.248.616.563.836.944.224.388.361.794.412 1.217.053.413.027.816-.078 1.21a3.177 3.177 0 0 1-.537 1.085 3.18 3.18 0 0 1-.95.826 3.27 3.27 0 0 1-1.201.416c-.417.047-.82.02-1.21-.078a3.258 3.258 0 0 1-1.096-.53 3.301 3.301 0 0 1-.837-.972Zm3.816.25c.479-.276.782-.687.91-1.233.132-.556.05-1.09-.246-1.603-.296-.513-.716-.848-1.26-1.005a1.855 1.855 0 0 0-1.522.172 1.893 1.893 0 0 0-.92 1.238c-.135.55-.055 1.08.241 1.593.296.513.714.853 1.255 1.022a1.906 1.906 0 0 0 1.543-.184Zm4.195-1.341-3.054-5.29 1.04-.6.39.675c.01-.348.103-.66.276-.935.17-.283.41-.514.722-.694.111-.064.212-.113.303-.148.091-.034.183-.059.275-.075l.54.935a2.462 2.462 0 0 0-.35.091 1.83 1.83 0 0 0-.329.149c-.305.176-.53.417-.677.723-.144.296-.19.64-.137 1.035l2.04 3.534-1.039.6Zm.564-10.33 4.332 7.503-1.04.6-4.2-7.274.908-.83Zm9.609 4.456-.288-.498c-.114.315-.28.604-.496.868a3.028 3.028 0 0 1-.79.65 3.062 3.062 0 0 1-1.17.398c-.409.042-.805.012-1.187-.09a3.152 3.152 0 0 1-1.06-.539 3.27 3.27 0 0 1-.831-.96 3.18 3.18 0 0 1-.41-1.191 3.153 3.153 0 0 1 .063-1.187 3.05 3.05 0 0 1 .532-1.07c.249-.337.56-.613.934-.83.291-.167.598-.284.92-.35a3.16 3.16 0 0 1 .97-.048l-1.398-2.421.908-.829 4.332 7.503-1.03.594Zm-4.81-.77c.3.52.725.856 1.276 1.01.55.153 1.078.083 1.584-.209.298-.172.54-.385.725-.64a2.03 2.03 0 0 0 .374-.84l-1.386-2.4a2.098 2.098 0 0 0-.908-.085c-.32.037-.626.14-.917.307a2.006 2.006 0 0 0-.978 1.258c-.147.546-.07 1.08.23 1.599Zm12.383-4.794c.416-.24.766-.553 1.051-.94.281-.392.464-.82.547-1.285l1.137.314a4.423 4.423 0 0 1-.776 1.68 4.61 4.61 0 0 1-1.408 1.257 4.525 4.525 0 0 1-1.675.58 4.377 4.377 0 0 1-1.661-.095 4.478 4.478 0 0 1-1.501-.727 4.375 4.375 0 0 1-1.143-1.307 4.317 4.317 0 0 1-.561-1.644 4.33 4.33 0 0 1 .127-1.653 4.277 4.277 0 0 1 .743-1.496c.36-.466.806-.853 1.339-1.16a4.629 4.629 0 0 1 1.83-.6 4.038 4.038 0 0 1 1.827.164l-.296 1.169a3.28 3.28 0 0 0-1.424-.162 3.38 3.38 0 0 0-1.355.436 3.18 3.18 0 0 0-.95.826c-.253.33-.428.69-.527 1.08a3.122 3.122 0 0 0-.057 1.197c.053.412.192.813.416 1.2.224.389.503.712.838.972.33.252.687.43 1.07.532.382.103.781.13 1.198.084.42-.057.823-.198 1.211-.422Zm1.045-9.416 4.332 7.504-1.04.6-4.2-7.275.908-.829Zm7.283 5.925c-.575.332-1.129.453-1.66.363-.533-.09-.937-.374-1.213-.852-.288-.5-.324-1-.107-1.505.213-.51.652-.958 1.318-1.342a3.86 3.86 0 0 1 .796-.349c.27-.091.542-.156.816-.194l-.324-.561c-.216-.374-.489-.591-.819-.65-.33-.06-.702.031-1.118.271a3.15 3.15 0 0 0-.692.553 6.115 6.115 0 0 0-.692.842l-.834-.557c.287-.415.583-.766.888-1.053a4.89 4.89 0 0 1 .972-.742c.686-.396 1.312-.535 1.878-.419.569.106 1.028.46 1.376 1.063l2.021 3.502-1.018.588-.264-.457c-.128.323-.3.607-.519.853a3.207 3.207 0 0 1-.805.645Zm-1.888-1.086a.857.857 0 0 0 .682.438c.314.03.648-.056 1.001-.26.277-.16.51-.35.697-.568a2.19 2.19 0 0 0 .418-.74l-.528-.915a2.706 2.706 0 0 0-.772.127 3.462 3.462 0 0 0-.775.337c-.375.216-.626.468-.756.755a.86.86 0 0 0 .033.826Zm4.797-1.633.165-1.01c.401.055.778.059 1.13.013.355-.058.681-.172.98-.344.374-.216.636-.465.788-.746.151-.282.16-.54.023-.776a.626.626 0 0 0-.466-.327c-.202-.03-.46.017-.776.144l-1.034.417c-.564.223-1.05.292-1.46.206-.408-.098-.73-.351-.966-.76a1.595 1.595 0 0 1-.094-1.483c.209-.518.622-.955 1.238-1.311.388-.224.788-.38 1.198-.47a4.442 4.442 0 0 1 1.323-.085l-.134.992c-.403-.026-.767 0-1.092.076a2.982 2.982 0 0 0-.9.34c-.318.183-.536.397-.654.64-.118.245-.115.474.009.688.112.194.264.305.455.333.195.017.462-.04.802-.171l1.034-.417c.563-.224 1.052-.29 1.466-.196.422.09.75.339.986.747.136.236.205.492.207.767.006.265-.05.529-.167.79a2.81 2.81 0 0 1-.492.756c-.223.239-.49.448-.801.628a4.75 4.75 0 0 1-1.403.547 3.4 3.4 0 0 1-1.365.012Zm4.892-2.825.165-1.01c.401.055.778.06 1.13.014.355-.058.681-.172.98-.344.373-.216.636-.465.788-.747.151-.281.159-.54.023-.775a.626.626 0 0 0-.466-.327c-.203-.03-.461.017-.776.143l-1.034.417c-.564.224-1.05.293-1.461.206-.407-.097-.729-.35-.965-.759a1.595 1.595 0 0 1-.094-1.483c.209-.518.621-.955 1.238-1.311.388-.224.787-.381 1.198-.47a4.441 4.441 0 0 1 1.323-.085l-.135.992c-.402-.026-.766 0-1.092.076a2.979 2.979 0 0 0-.899.34c-.318.183-.537.397-.655.64-.118.244-.115.473.01.688.111.194.263.305.455.333.194.017.462-.04.801-.172l1.034-.416c.564-.224 1.053-.29 1.467-.196.421.09.75.338.986.747.136.236.205.491.207.767.005.265-.05.528-.167.79-.11.257-.275.51-.493.755a3.41 3.41 0 0 1-.8.629 4.752 4.752 0 0 1-1.403.547c-.471.096-.926.1-1.365.012Z" fill="#fff"/><path d="M101.624 55.21c-2.96-6.574-6.955-15.689-11.535-21.115-18.784 10.27-37.435 20.65-55.75 31.764-6.951 4.218-13.783 9.904-21.246 13.145 3.467 5.4 6.676 10.941 10.094 16.36 1.4 2.218 3.61 4.176 4.678 6.585C48.53 89.809 68.21 75.922 89.368 64.606c4.056-2.17 7.732-5.095 11.986-6.917-11.008 5.172-21.293 12.14-31.736 18.346-6.98 4.149-14.628 7.148-21.655 11.274-6.645 3.902-12.544 9.08-19.248 12.833-6.217-7.058-13.003-13.978-18.703-21.472 4.19-2.537 8.085-5.571 12.299-8.05 22.43-13.197 45.12-25.88 68.155-37.965 4.095 7.182 6.407 15.06 10.063 22.398-4.853-7.019-7.608-15.264-12.27-22.363-3.142.96-6.13 3.253-8.98 4.835-7.511 4.168-14.96 8.268-22.266 12.79-9.191 5.686-18.254 11.49-27.365 17.31-6.245 3.989-13.7 7.586-19.13 12.746 5.157 7.422 10.438 14.776 15.678 22.131M84.167 23.856c-.046-3.01-.002-6.005.079-9.014M90.48 26.082c1.092-3.232 2.707-6.23 4.11-9.325M95.559 30.223c2.09-1.95 4.451-3.73 7.074-4.873" stroke="#fff" stroke-miterlimit="1.5" stroke-linecap="round" stroke-linejoin="round"/></svg>