<svg width="83" height="19" fill="none" xmlns="http://www.w3.org/2000/svg"><path fill-rule="evenodd" clip-rule="evenodd" d="M3.192 17.417a1.59 1.59 0 0 0-1.596-1.584A1.59 1.59 0 0 0 0 17.417 1.59 1.59 0 0 0 1.596 19a1.59 1.59 0 0 0 1.596-1.583Zm15.962 0a1.59 1.59 0 0 0-1.596-1.584 1.59 1.59 0 0 0-1.597 1.584A1.59 1.59 0 0 0 17.558 19a1.59 1.59 0 0 0 1.596-1.583Zm14.365-1.584a1.59 1.59 0 0 1 1.596 1.584A1.59 1.59 0 0 1 33.52 19a1.59 1.59 0 0 1-1.596-1.583 1.59 1.59 0 0 1 1.596-1.584Zm17.558 1.584a1.59 1.59 0 0 0-1.596-1.584 1.59 1.59 0 0 0-1.596 1.584A1.59 1.59 0 0 0 49.48 19a1.59 1.59 0 0 0 1.596-1.583Zm14.365-1.584a1.59 1.59 0 0 1 1.597 1.584A1.59 1.59 0 0 1 65.442 19a1.59 1.59 0 0 1-1.596-1.583 1.59 1.59 0 0 1 1.596-1.584ZM83 17.417a1.59 1.59 0 0 0-1.596-1.584 1.59 1.59 0 0 0-1.596 1.584A1.59 1.59 0 0 0 81.404 19 1.59 1.59 0 0 0 83 17.417ZM1.596 0a1.59 1.59 0 0 1 1.596 1.583 1.59 1.59 0 0 1-1.596 1.584A1.59 1.59 0 0 1 0 1.583 1.59 1.59 0 0 1 1.596 0Zm17.558 1.583A1.59 1.59 0 0 0 17.558 0a1.59 1.59 0 0 0-1.597 1.583 1.59 1.59 0 0 0 1.597 1.584 1.59 1.59 0 0 0 1.596-1.584ZM33.519 0a1.59 1.59 0 0 1 1.596 1.583 1.59 1.59 0 0 1-1.596 1.584 1.59 1.59 0 0 1-1.596-1.584A1.59 1.59 0 0 1 33.52 0Zm17.558 1.583A1.59 1.59 0 0 0 49.48 0a1.59 1.59 0 0 0-1.596 1.583 1.59 1.59 0 0 0 1.596 1.584 1.59 1.59 0 0 0 1.596-1.584ZM65.442 0a1.59 1.59 0 0 1 1.597 1.583 1.59 1.59 0 0 1-1.597 1.584 1.59 1.59 0 0 1-1.596-1.584A1.59 1.59 0 0 1 65.442 0ZM83 1.583A1.59 1.59 0 0 0 81.404 0a1.59 1.59 0 0 0-1.596 1.583 1.59 1.59 0 0 0 1.596 1.584A1.59 1.59 0 0 0 83 1.583Z" fill="#fff"/></svg>