<svg width="100" height="100" fill="none" xmlns="http://www.w3.org/2000/svg"><g filter="url('#filter0_b_59_498')"><circle cx="50" cy="50" r="50" fill="#fff" fill-opacity=".5"/></g><path d="M45 56.667a.556.556 0 0 1-.556-.556V43.89a.555.555 0 0 1 .824-.487l11.11 6.111a.556.556 0 0 1 0 .974l-11.11 6.11a.557.557 0 0 1-.268.07Z" fill="#FFC93E"/><path d="m24.45 77.225 1.392 1.463L21.1 83.2l-1.454-1.529c-.438-.46-.717-.943-.839-1.451a2.574 2.574 0 0 1 .097-1.526c.186-.51.524-.998 1.015-1.465.494-.47 1.003-.786 1.527-.95a2.595 2.595 0 0 1 1.551-.01c.51.155.994.474 1.453.956Zm.336 1.373-.81-.852c-.374-.392-.758-.645-1.155-.759a1.93 1.93 0 0 0-1.195.038c-.4.14-.792.393-1.178.76-.383.364-.653.74-.81 1.128a1.91 1.91 0 0 0-.106 1.169c.086.39.306.771.659 1.142l.872.917 3.723-3.543ZM18.283 68.688c.14.277.216.555.226.834.008.28-.054.538-.186.772a1.451 1.451 0 0 1-.629.57c-.25.126-.479.18-.685.16a1.174 1.174 0 0 1-.571-.208 2.337 2.337 0 0 1-.477-.446 7.51 7.51 0 0 1-.417-.553 31.419 31.419 0 0 1-.404-.608c-.104-.157-.197-.263-.28-.317-.083-.056-.178-.056-.287-.001l-.023.011c-.28.143-.46.33-.538.564-.079.23-.04.501.117.81.163.322.36.538.594.65.233.11.448.163.645.156l.096.754a1.719 1.719 0 0 1-.853-.141 1.916 1.916 0 0 1-.631-.468 2.919 2.919 0 0 1-.432-.627 2.988 2.988 0 0 1-.195-.51 1.74 1.74 0 0 1-.067-.636c.015-.225.097-.447.246-.666.15-.22.398-.417.746-.593l2.885-1.462.34.672-.592.301.017.034a1.33 1.33 0 0 1 .42.074c.163.051.327.146.493.284.165.139.313.335.442.59Zm-.657.203c-.135-.266-.3-.464-.498-.593a1.196 1.196 0 0 0-1.21-.09l-.615.313c.049.011.112.058.19.14.074.082.154.18.238.295a17.32 17.32 0 0 1 .412.6c.112.164.232.309.36.435a.948.948 0 0 0 .41.25c.145.042.303.019.474-.068.234-.118.367-.294.4-.528.028-.234-.025-.486-.16-.754ZM8.65 61.958 15 60.37l.183.731-6.35 1.588-.183-.732ZM14.095 54.772l-4.898.322-.05-.752 4.9-.322.048.752Zm-5.74-.007a.536.536 0 0 1-.125.39.483.483 0 0 1-.35.18.482.482 0 0 1-.37-.133.536.536 0 0 1-.175-.37.525.525 0 0 1 .125-.386.478.478 0 0 1 .35-.183c.14-.01.264.036.37.136.108.097.166.22.175.366ZM14.503 46.414a2.14 2.14 0 0 1-.509 1.096 2.15 2.15 0 0 1-1.004.62c-.405.118-.858.135-1.357.049-.504-.086-.929-.253-1.273-.5a2.144 2.144 0 0 1-.744-.919 2.14 2.14 0 0 1-.115-1.203c.075-.437.244-.801.508-1.093.265-.294.6-.5 1.008-.619.407-.12.863-.137 1.367-.05.5.085.921.252 1.263.5.343.248.59.554.74.92.153.362.191.762.116 1.2Zm-.668-.114c.057-.332.019-.62-.114-.863a1.525 1.525 0 0 0-.59-.59 2.609 2.609 0 0 0-.874-.31 2.634 2.634 0 0 0-.93 0c-.298.055-.55.175-.76.36-.209.184-.341.442-.398.774-.057.332-.018.62.118.864.135.243.334.44.595.591.262.151.555.254.878.31.323.055.633.055.927 0 .295-.056.546-.176.753-.361.207-.185.338-.444.395-.775ZM21.297 30.173l-1.261 1.578-5.114-4.086 1.317-1.648c.396-.496.838-.838 1.324-1.027.485-.191.994-.228 1.525-.112.53.115 1.06.384 1.589.807.532.426.915.887 1.148 1.384.231.496.305 1.008.222 1.536-.085.526-.335 1.049-.75 1.568Zm-1.316.52.734-.919c.338-.423.537-.838.596-1.247a1.93 1.93 0 0 0-.2-1.178c-.193-.377-.497-.732-.913-1.064-.413-.33-.822-.547-1.228-.65a1.91 1.91 0 0 0-1.172.054c-.375.139-.723.408-1.042.807l-.79.99 4.015 3.207ZM27.716 23.67l-2.972-3.909.6-.456 2.972 3.908-.6.456Zm-3.162-4.792a.536.536 0 0 1-.393.11.483.483 0 0 1-.343-.192.483.483 0 0 1-.094-.382.536.536 0 0 1 .212-.35.525.525 0 0 1 .39-.109c.146.015.261.079.346.19.086.113.116.24.092.385a.525.525 0 0 1-.21.348ZM35.642 21.088c-.334.146-.64.23-.917.25a1.994 1.994 0 0 1-.747-.07 1.992 1.992 0 0 1-.57-.273l.38-.628c.098.055.219.113.36.177.143.065.315.1.515.105.203.006.44-.05.71-.17.364-.16.624-.379.783-.658.159-.28.156-.607-.01-.981l-.401-.913-.059.026a4.041 4.041 0 0 1-.082.4 1.34 1.34 0 0 1-.258.493c-.13.168-.343.316-.635.444-.363.16-.726.218-1.09.173a1.974 1.974 0 0 1-1.012-.449c-.31-.254-.568-.616-.774-1.084-.202-.46-.298-.896-.286-1.309.01-.414.119-.779.325-1.093.206-.316.497-.557.876-.724.292-.129.546-.182.76-.16.216.019.397.07.542.152.147.08.263.148.348.203l.07-.03-.314-.714.667-.294 2.035 4.622c.17.386.22.739.151 1.058-.066.32-.222.601-.466.844a2.893 2.893 0 0 1-.901.603Zm-1.11-2.459c.276-.122.482-.288.618-.5.135-.21.2-.456.195-.738a2.415 2.415 0 0 0-.227-.92 2.542 2.542 0 0 0-.524-.792 1.403 1.403 0 0 0-.689-.392c-.253-.056-.52-.023-.8.101-.293.129-.504.31-.634.544a1.479 1.479 0 0 0-.173.789c.014.292.088.59.222.894.138.312.308.566.511.763.204.194.433.317.686.369.254.048.526.01.814-.118ZM42.923 16.704l-.876-4.83.742-.135.876 4.83-.742.135ZM42.279 11a.536.536 0 0 1-.401-.08.482.482 0 0 1-.219-.327.483.483 0 0 1 .09-.383.537.537 0 0 1 .347-.216.525.525 0 0 1 .398.08c.123.08.197.189.222.327a.478.478 0 0 1-.093.384.525.525 0 0 1-.344.215ZM51.545 11.153l-.015.64-2.543-.058.014-.639 2.544.057Zm-1.776-1.216.754.017-.105 4.678c-.005.213.023.373.082.481a.48.48 0 0 0 .238.216c.1.037.205.056.315.059.084.001.152-.001.205-.009l.129-.022.138.68a1.576 1.576 0 0 1-.564.077 1.519 1.519 0 0 1-.624-.151c-.2-.096-.365-.24-.495-.43-.128-.19-.189-.428-.182-.714l.109-4.882ZM58.651 17.245a1.995 1.995 0 0 1-.77-.395 1.454 1.454 0 0 1-.445-.656 1.45 1.45 0 0 1 .002-.848c.075-.271.189-.476.342-.616.154-.14.333-.235.539-.282.205-.047.422-.065.65-.053.232.011.462.033.69.064.297.043.538.08.722.11.186.03.327.032.422.007.097-.024.162-.095.194-.212l.007-.024c.084-.304.066-.563-.054-.778-.118-.213-.344-.367-.68-.459-.346-.095-.64-.095-.879.003a1.399 1.399 0 0 0-.55.372l-.622-.437a1.72 1.72 0 0 1 .678-.535c.252-.105.51-.156.772-.152.264.002.516.036.754.102.152.041.321.108.508.2.19.09.362.215.516.377.156.162.265.373.327.63.062.258.04.575-.063.951l-.86 3.118-.727-.2.177-.641-.037-.01c-.078.089-.19.176-.338.261a1.475 1.475 0 0 1-.541.173c-.214.03-.458.006-.733-.07Zm.291-.623c.288.08.546.09.774.032a1.197 1.197 0 0 0 .88-.835l.184-.666c-.041.028-.118.044-.232.046-.11 0-.236-.007-.378-.022a17.428 17.428 0 0 1-.722-.1 2.89 2.89 0 0 0-.563-.025.948.948 0 0 0-.462.134c-.128.08-.217.212-.268.397-.07.253-.029.47.122.65.154.18.376.31.666.39ZM70.112 14.648l-3.099 5.765-.664-.357 3.099-5.766.664.358ZM77.298 28.683l-.49-.671 6.707-1.91.482.662-3.877 5.795-.49-.672 3.304-4.824-.03-.041-5.606 1.662Zm2.248-1.256 1.97 2.707-.568.414-1.97-2.707.568-.414ZM81.774 40.456a2.797 2.797 0 0 1-.168-.935c.002-.278.047-.524.134-.738.086-.211.194-.392.322-.544l.593.434a4.748 4.748 0 0 0-.208.343 1.312 1.312 0 0 0-.15.503c-.024.202.011.443.106.724.128.375.323.654.588.837.264.182.59.208.978.077l.944-.32-.02-.061a4.087 4.087 0 0 1-.391-.117 1.341 1.341 0 0 1-.47-.3c-.155-.146-.283-.37-.386-.672a2.048 2.048 0 0 1-.076-1.102c.077-.357.256-.68.536-.968.28-.286.663-.511 1.148-.675.476-.162.919-.218 1.329-.17.412.047.765.187 1.06.42.297.232.512.544.644.935.103.303.134.56.093.772a1.331 1.331 0 0 1-.2.527 5.12 5.12 0 0 1-.232.328l.024.073.739-.25.234.69-4.783 1.62c-.4.136-.755.155-1.067.058a1.637 1.637 0 0 1-.8-.539 2.893 2.893 0 0 1-.521-.95Zm2.546-.89c.098.286.245.506.443.66.199.153.438.24.72.259.28.02.592-.029.935-.145.335-.114.614-.264.836-.452.222-.188.372-.405.45-.652.079-.247.069-.516-.03-.806-.102-.303-.264-.53-.486-.68a1.48 1.48 0 0 0-.77-.241 2.522 2.522 0 0 0-.91.143c-.323.11-.592.257-.806.442a1.386 1.386 0 0 0-.427.65c-.07.25-.056.523.045.822ZM85.552 50.13c-.021-.472.064-.884.257-1.236.194-.35.476-.627.844-.83.37-.2.807-.313 1.309-.336.502-.023.95.047 1.34.213.395.167.707.41.937.73.233.322.36.705.38 1.147.012.256-.02.51-.093.763a1.878 1.878 0 0 1-.383.7c-.18.212-.424.387-.73.523-.308.136-.69.214-1.148.235l-.32.015-.175-3.78.651-.03.14 3.014a1.61 1.61 0 0 0 .733-.2c.212-.12.376-.283.493-.49.116-.206.168-.446.155-.718-.014-.3-.1-.556-.26-.769a1.472 1.472 0 0 0-.598-.474 1.69 1.69 0 0 0-.768-.14l-.434.02c-.37.017-.681.095-.933.235-.25.142-.436.33-.559.567a1.582 1.582 0 0 0-.16.81c.009.198.045.376.107.533.065.159.157.294.275.406.12.112.267.196.44.252l-.17.737a1.615 1.615 0 0 1-.67-.356 1.885 1.885 0 0 1-.465-.65 2.491 2.491 0 0 1-.195-.89ZM88.015 59.119l-2.872-.684.174-.734 4.776 1.137-.169.71-.746-.178-.015.062c.216.17.37.386.463.649.095.263.1.575.014.936a1.79 1.79 0 0 1-.401.801 1.378 1.378 0 0 1-.732.424c-.297.072-.65.06-1.055-.038l-3.035-.722.175-.734 2.985.71c.375.09.69.062.946-.083.258-.144.427-.386.508-.726a1.315 1.315 0 0 0-.003-.665 1.12 1.12 0 0 0-.342-.538 1.51 1.51 0 0 0-.67-.327ZM81.057 69.327c.227-.401.516-.693.869-.875a2.125 2.125 0 0 1 1.159-.227c.42.032.843.168 1.27.41.434.244.772.54 1.014.887.243.35.377.722.402 1.115.026.397-.07.788-.288 1.174-.17.3-.378.54-.626.718a1.786 1.786 0 0 1-.802.329c-.287.04-.575.004-.863-.11l.37-.656c.224.06.46.046.707-.042.248-.085.454-.272.618-.561.144-.256.204-.519.18-.787a1.499 1.499 0 0 0-.307-.764 2.38 2.38 0 0 0-.753-.635 2.524 2.524 0 0 0-.951-.33 1.517 1.517 0 0 0-.822.122c-.244.117-.44.305-.587.565-.096.17-.154.342-.173.515a1.1 1.1 0 0 0 .341.93l-.37.657a1.746 1.746 0 0 1-.68-1.507c.017-.303.114-.613.292-.928ZM75.133 74.7a1.648 1.648 0 0 1 .45-.326l.337.605c-.163.097-.289.2-.38.308a.582.582 0 0 0-.13.398c.001.157.057.355.17.596l.172.37 4.779 2.194-.578.58-3.728-1.798-.036.036 1.817 3.72-.578.58-2.517-5.445a2.128 2.128 0 0 1-.2-.691 1.305 1.305 0 0 1 .075-.606c.07-.186.186-.36.347-.52Z" fill="#000"/><defs><filter id="filter0_b_59_498" x="-50" y="-50" width="200" height="200" filterUnits="userSpaceOnUse" color-interpolation-filters="sRGB"><feFlood flood-opacity="0" result="BackgroundImageFix"/><feGaussianBlur in="BackgroundImageFix" stdDeviation="25"/><feComposite in2="SourceAlpha" operator="in" result="effect1_backgroundBlur_59_498"/><feBlend in="SourceGraphic" in2="effect1_backgroundBlur_59_498" result="shape"/></filter></defs></svg>