<svg width="62" height="48" fill="none" xmlns="http://www.w3.org/2000/svg"><path d="M28.8 35.46a11.602 11.602 0 0 1-3.808 9.1l-.01.008a13.648 13.648 0 0 1-9.524 3.428h.022A14.416 14.416 0 0 1 4.128 43.4l-.008-.008A17.592 17.592 0 0 1 .006 31.106l-.002.042a32.482 32.482 0 0 1 2.53-13.538l-.08.214A32.375 32.375 0 0 1 8.356 8.69l-.022.024a29.758 29.758 0 0 1 7.008-5.606l.144-.076A43.602 43.602 0 0 1 21.638.098l.312-.106 6.268 10.58a16.182 16.182 0 0 0-6.634 4.964l-.026.034a13.748 13.748 0 0 0-3.13 7.282l-.006.064a9.685 9.685 0 0 1 7.142 3.416l.012.014a12.678 12.678 0 0 1 3.228 9.14l.002-.03-.006.004Zm33.896 0a11.614 11.614 0 0 1-3.81 9.102l-.01.008a13.638 13.638 0 0 1-9.524 3.428h.022a14.406 14.406 0 0 1-11.352-4.596l-.008-.01A17.584 17.584 0 0 1 33.9 31.104l-.002.042a32.483 32.483 0 0 1 2.53-13.538l-.08.214a32.406 32.406 0 0 1 5.898-9.134l-.022.024a29.768 29.768 0 0 1 7.01-5.606l.144-.076A43.386 43.386 0 0 1 55.53.096l.312-.106 6.266 10.58a16.187 16.187 0 0 0-6.634 4.968l-.026.034a13.748 13.748 0 0 0-3.13 7.282l-.006.064a9.673 9.673 0 0 1 7.138 3.416l.012.014a12.67 12.67 0 0 1 3.234 9.138l.002-.03-.002.004Z" fill="#F3F5F6"/></svg>