<svg width="42" height="32" fill="none" xmlns="http://www.w3.org/2000/svg"><g opacity=".2" clip-path="url('#clip0_59_623')"><path d="M19.2 23.64a7.735 7.735 0 0 1-2.539 6.066l-.006.006a9.099 9.099 0 0 1-6.35 2.285h.015a9.611 9.611 0 0 1-7.568-3.064l-.005-.005a11.728 11.728 0 0 1-2.743-8.19l-.001.027a21.655 21.655 0 0 1 1.686-9.025l-.053.143a21.583 21.583 0 0 1 3.935-6.09l-.015.016a19.838 19.838 0 0 1 4.672-3.737l.096-.05A29.06 29.06 0 0 1 14.425.064l.208-.07 4.18 7.053c-1.737.7-3.262 1.84-4.424 3.31l-.017.022a9.165 9.165 0 0 0-2.087 4.854l-.004.043a6.455 6.455 0 0 1 4.762 2.278l.008.009a8.452 8.452 0 0 1 2.152 6.093l.001-.02-.004.003Zm22.597 0a7.742 7.742 0 0 1-2.54 6.068l-.006.005a9.092 9.092 0 0 1-6.35 2.285h.015a9.604 9.604 0 0 1-7.568-3.064l-.005-.006a11.723 11.723 0 0 1-2.743-8.192l-.001.028a21.655 21.655 0 0 1 1.686-9.025l-.053.142a21.601 21.601 0 0 1 3.932-6.09l-.015.017a19.845 19.845 0 0 1 4.674-3.737l.096-.051A28.92 28.92 0 0 1 37.02.064l.208-.07 4.177 7.053a10.79 10.79 0 0 0-4.422 3.311l-.018.023a9.165 9.165 0 0 0-2.086 4.855l-.004.042a6.447 6.447 0 0 1 4.758 2.278l.008.01a8.447 8.447 0 0 1 2.156 6.091l.002-.02-.002.003Z" fill="#FFC93E"/></g><defs><clipPath id="clip0_59_623"><path fill="#fff" d="M0 0h41.333v32H0z"/></clipPath></defs></svg>