<svg width="23" height="103" fill="none" xmlns="http://www.w3.org/2000/svg"><path d="m3.032 87.939 8.282 14.345 8.282-14.345H18.57l-7.256 12.569-7.257-12.57H3.032Z" fill="#F3F5F6"/><path d="m5.264 87.939 6.05 10.478 6.05-10.478h-12.1ZM7.991 72.199a1.56 1.56 0 0 0-1.173.726c-.279.424-.418.944-.418 1.56 0 .452.073.846.219 1.184.146.335.346.597.601.785.256.186.546.279.87.279.272 0 .506-.065.701-.194a1.72 1.72 0 0 0 .483-.507c.126-.206.23-.421.313-.646.08-.226.144-.433.194-.622l.278-1.034c.07-.265.166-.56.289-.885.122-.328.29-.641.502-.94.209-.301.477-.55.805-.745.328-.196.731-.293 1.208-.293.55 0 1.048.144 1.492.432.444.285.797.703 1.059 1.253.261.547.392 1.211.392 1.993 0 .73-.117 1.361-.353 1.895-.235.53-.563.948-.984 1.252-.42.302-.91.473-1.467.513v-1.273c.385-.033.703-.163.955-.388a2.1 2.1 0 0 0 .557-.865c.12-.351.179-.73.179-1.133 0-.471-.076-.894-.229-1.268a2.176 2.176 0 0 0-.646-.89 1.531 1.531 0 0 0-.975-.328c-.338 0-.613.094-.825.283a2.08 2.08 0 0 0-.517.746 7.823 7.823 0 0 0-.348 1l-.358 1.252c-.229.795-.555 1.425-.98 1.89-.424.463-.979.695-1.665.695-.57 0-1.067-.154-1.491-.462a3.071 3.071 0 0 1-.995-1.253 4.23 4.23 0 0 1-.358-1.765c0-.656.118-1.24.353-1.75.232-.51.55-.915.955-1.213.404-.302.863-.46 1.377-.477v1.193Zm7.796-6.303c0 .716-.17 1.332-.508 1.85a3.304 3.304 0 0 1-1.397 1.193c-.593.278-1.27.417-2.033.417-.776 0-1.46-.142-2.053-.427a3.38 3.38 0 0 1-1.397-1.203c-.338-.517-.507-1.12-.507-1.81 0-.537.1-1.02.298-1.452a2.78 2.78 0 0 1 .835-1.059 2.605 2.605 0 0 1 1.253-.512v1.174c-.348.09-.656.288-.925.596-.271.305-.407.716-.407 1.233 0 .457.119.859.358 1.203.235.342.568.608.999.8.427.19.93.284 1.506.284.59 0 1.104-.093 1.542-.278.437-.19.777-.454 1.019-.796.242-.344.363-.749.363-1.213 0-.305-.053-.582-.16-.83a1.713 1.713 0 0 0-.457-.632 1.752 1.752 0 0 0-.716-.367v-1.174c.45.067.857.23 1.218.492.358.259.643.602.855 1.03.21.424.313.918.313 1.481Zm-.16-4.718H7.991v-1.133h1.153v-.08a1.834 1.834 0 0 1-.92-.756 2.224 2.224 0 0 1-.352-1.233c0-.086.001-.194.005-.323.003-.129.008-.227.015-.293h1.193c-.01.04-.025.13-.045.273-.023.14-.035.287-.035.443 0 .371.078.703.234.994.152.288.365.517.636.686.269.166.575.249.92.249h4.832v1.173Zm.16-8.079c0 .69-.165 1.295-.493 1.815a3.344 3.344 0 0 1-1.377 1.213c-.59.288-1.28.432-2.068.432-.795 0-1.49-.144-2.083-.432a3.338 3.338 0 0 1-1.382-1.213c-.328-.52-.492-1.125-.492-1.815s.164-1.292.492-1.81c.328-.52.789-.924 1.382-1.212.593-.292 1.288-.438 2.083-.438.789 0 1.478.146 2.068.438.59.288 1.05.692 1.377 1.213.329.517.492 1.12.492 1.81Zm-1.054 0c0-.523-.135-.954-.403-1.292a2.375 2.375 0 0 0-1.06-.751 4.055 4.055 0 0 0-1.421-.244c-.51 0-.986.082-1.427.244-.44.162-.797.413-1.069.75-.271.339-.407.77-.407 1.293 0 .524.136.955.407 1.293.272.338.628.588 1.07.75.44.163.916.244 1.426.244.51 0 .984-.081 1.422-.243.437-.163.79-.413 1.059-.751.268-.338.403-.77.403-1.293Zm-9.287-6.424h10.181v1.173H5.446v-1.173Zm0-3.323h10.181v1.174H5.446v-1.174Zm10.181-9.387v3.142H5.446v-3.281c0-.988.203-1.833.611-2.536a4.003 4.003 0 0 1 1.745-1.616c.756-.374 1.66-.561 2.715-.561 1.06 0 1.973.189 2.739.566a4.039 4.039 0 0 1 1.76 1.65c.408.723.611 1.602.611 2.636Zm-1.093 1.909v-1.83c0-.841-.163-1.54-.488-2.093a3.003 3.003 0 0 0-1.387-1.238c-.6-.271-1.314-.407-2.142-.407-.822 0-1.53.134-2.123.402a2.97 2.97 0 0 0-1.372 1.204c-.322.533-.483 1.198-.483 1.993v1.969h7.995ZM15.786 24.1c0 .69-.163 1.294-.492 1.815a3.343 3.343 0 0 1-1.377 1.213c-.59.288-1.28.432-2.068.432-.795 0-1.49-.144-2.083-.432a3.337 3.337 0 0 1-1.382-1.213c-.328-.52-.492-1.125-.492-1.815s.164-1.292.492-1.81c.328-.52.789-.924 1.382-1.213.593-.291 1.288-.437 2.083-.437.789 0 1.478.146 2.068.438.59.288 1.05.692 1.377 1.212.329.518.492 1.12.492 1.81Zm-1.053 0c0-.523-.135-.954-.403-1.292a2.374 2.374 0 0 0-1.06-.751 4.055 4.055 0 0 0-1.421-.244c-.51 0-.986.081-1.427.244-.44.162-.797.413-1.069.75-.271.339-.407.77-.407 1.293 0 .524.136.955.407 1.293.272.338.628.588 1.07.75.44.163.916.244 1.426.244.51 0 .984-.081 1.422-.244.437-.162.79-.412 1.059-.75.268-.338.403-.77.403-1.293Zm.894-6.721-7.636 2.326v-1.233l5.847-1.65v-.08l-5.847-1.63V13.86l5.827-1.611v-.08L7.99 10.52V9.286l7.636 2.327v1.153l-5.866 1.67v.12l5.866 1.67v1.154ZM11.034 6.56h4.593v1.174H7.991V6.6h1.193v-.1a2.18 2.18 0 0 1-.934-.815c-.239-.364-.358-.835-.358-1.412 0-.517.106-.969.318-1.357.209-.388.527-.69.954-.905.425-.215.962-.323 1.611-.323h4.852v1.174h-4.772c-.6 0-1.068.155-1.402.467-.338.311-.507.739-.507 1.283 0 .374.08.709.243 1.004.163.292.4.522.711.69.312.17.69.254 1.134.254Z" fill="#F3F5F6"/></svg>