<svg width="64" height="64" fill="none" xmlns="http://www.w3.org/2000/svg"><path d="M18.667 31.126v14.207h14.207l-2.963-2.963H21.63V34.09l-2.963-2.963Z" fill="#FFC93E"/><path d="m56.993 53.17-4.252-4.31v3.88H11.259v-6.148h2.963v-2.37H11.26V34.37h2.963V32H11.26v-9.482h2.963v-2.37H11.26v-8.281l23.615 23.481V31.17L10.83 7.244a1.482 1.482 0 0 0-2.534 1.052v45.926a1.481 1.481 0 0 0 1.482 1.482H55.94a1.481 1.481 0 0 0 1.052-2.534Z" fill="#FFC93E"/><path d="M40.889 49.778h5.926a2.963 2.963 0 0 0 2.963-2.963V18.222l-3.408-6.267a2.962 2.962 0 0 0-2.607-1.481 2.963 2.963 0 0 0-2.607 1.6l-3.23 6.178v28.563a2.963 2.963 0 0 0 2.963 2.963Zm0-30.815 2.874-5.585 3.052 5.6v21.91h-5.926V18.964Zm0 24.34h5.926v3.615h-5.926v-3.614Z" fill="#FFC93E"/></svg>