<svg width="48" height="48" fill="none" xmlns="http://www.w3.org/2000/svg"><path d="m33.35 9.666 4.984 4.98-4.983-4.98Zm3.206-4.389L23.08 18.753a4.984 4.984 0 0 0-1.365 2.546l-1.244 6.23 6.23-1.247a4.979 4.979 0 0 0 2.546-1.362l13.476-13.476a4.363 4.363 0 0 0-1.415-7.112 4.36 4.36 0 0 0-4.752.945v0Z" stroke="#FFC93E" stroke-width="2.5" stroke-linecap="round" stroke-linejoin="round"/><path d="M39.294 32.235v7.06A4.706 4.706 0 0 1 34.59 44H8.706A4.706 4.706 0 0 1 4 39.294V13.412a4.706 4.706 0 0 1 4.706-4.706h7.059" stroke="#FFC93E" stroke-width="2.5" stroke-linecap="round" stroke-linejoin="round"/></svg>