<svg width="64" height="64" fill="none" xmlns="http://www.w3.org/2000/svg"><path d="M24 45.333h8M10.667 10.667v42.666A5.333 5.333 0 0 0 16 58.667h32a5.333 5.333 0 0 0 5.333-5.334V22.245a5.333 5.333 0 0 0-1.605-3.813L39.888 6.853a5.333 5.333 0 0 0-3.728-1.52H16a5.333 5.333 0 0 0-5.333 5.334v0Zm13.333 24h16-16Z" stroke="#FFC93E" stroke-width="2.5" stroke-linecap="round" stroke-linejoin="round"/><path d="M37.333 5.333V16a5.333 5.333 0 0 0 5.334 5.333h10.666" stroke="#FFC93E" stroke-width="2.5" stroke-linejoin="round"/></svg>