<svg width="61" height="107" fill="none" xmlns="http://www.w3.org/2000/svg"><path d="M77.299 106.556c-.355.152-.712.3-1.07.444H34.771a50.632 50.632 0 0 1-1.07-.444h43.597ZM85.64 102.116c-.23.15-.463.298-.697.444H26.057a48.86 48.86 0 0 1-.698-.444h60.282ZM91.59 97.676c-.174.15-.349.297-.525.444h-71.13a55.508 55.508 0 0 1-.525-.444h72.18ZM96.214 93.237l-.417.444H15.203l-.417-.444h81.428ZM99.926 88.797a56.29 56.29 0 0 1-.337.444H11.411a60.25 60.25 0 0 1-.337-.444h88.852ZM102.939 84.357l-.273.444H8.334a53.913 53.913 0 0 1-.273-.444h94.878ZM105.378 79.917l-.221.444H5.843a54.53 54.53 0 0 1-.22-.444h99.755ZM107.321 75.477l-.174.444H3.853a55.169 55.169 0 0 1-.174-.444h103.642ZM108.822 71.037c-.043.149-.087.297-.132.444H2.31a54.1 54.1 0 0 1-.132-.444h106.644ZM109.917 66.597l-.092.445H1.175a55.423 55.423 0 0 1-.092-.445h108.834ZM110.632 62.158l-.055.444H.423a56.41 56.41 0 0 1-.055-.444h110.264ZM110.984 57.718l-.019.444H.035a55.986 55.986 0 0 1-.02-.444h110.969ZM110.984 53.278l.016.444H0l.016-.444h110.968ZM110.632 48.838l.052.444H.316l.052-.444h110.264ZM109.917 44.398c.03.148.06.296.088.444H.995c.028-.148.058-.296.088-.444h108.834ZM108.822 39.959l.127.444H2.051l.127-.444h106.644ZM107.321 35.519l.169.444H3.51c.056-.149.112-.297.17-.444H107.32ZM105.378 31.079l.215.444H5.407c.07-.148.143-.296.215-.444h99.756ZM102.939 26.639c.091.148.18.296.269.444H7.792l.269-.444h94.878ZM99.926 22.2l.331.443H10.743l.33-.444h88.853ZM96.214 17.76c.137.147.273.295.408.443H14.378l.408-.444h81.428ZM91.59 13.32c.172.146.343.294.513.444H18.897c.17-.15.34-.297.513-.444h72.18ZM85.64 8.88c.227.146.452.294.676.444H24.684c.224-.15.449-.298.675-.444h60.282ZM77.299 4.44c.339.145.676.293 1.011.444H32.69c.335-.151.672-.3 1.011-.444H77.3ZM48.443.444A56.095 56.095 0 0 1 55.5 0c2.39 0 4.746.151 7.057.444H48.443Z" fill="#fff"/></svg>