<svg width="83" height="115" fill="none" xmlns="http://www.w3.org/2000/svg"><path fill-rule="evenodd" clip-rule="evenodd" d="M1.583 3.192a1.59 1.59 0 0 0 1.584-1.596A1.59 1.59 0 0 0 1.583 0 1.59 1.59 0 0 0 0 1.596a1.59 1.59 0 0 0 1.583 1.596Zm0 15.962a1.59 1.59 0 0 0 1.584-1.596 1.59 1.59 0 0 0-1.584-1.597A1.59 1.59 0 0 0 0 17.558a1.59 1.59 0 0 0 1.583 1.596Zm1.584 14.365a1.59 1.59 0 0 1-1.584 1.596A1.59 1.59 0 0 1 0 33.52a1.59 1.59 0 0 1 1.583-1.596 1.59 1.59 0 0 1 1.584 1.596ZM1.583 51.077a1.59 1.59 0 0 0 1.584-1.596 1.59 1.59 0 0 0-1.584-1.596A1.59 1.59 0 0 0 0 49.48a1.59 1.59 0 0 0 1.583 1.596Zm1.584 14.365a1.59 1.59 0 0 1-1.584 1.597A1.59 1.59 0 0 1 0 65.442a1.59 1.59 0 0 1 1.583-1.596 1.59 1.59 0 0 1 1.584 1.596ZM1.583 83a1.59 1.59 0 0 0 1.584-1.596 1.59 1.59 0 0 0-1.584-1.596A1.59 1.59 0 0 0 0 81.404 1.59 1.59 0 0 0 1.583 83ZM19 1.596a1.59 1.59 0 0 1-1.583 1.596 1.59 1.59 0 0 1-1.584-1.596A1.59 1.59 0 0 1 17.417 0 1.59 1.59 0 0 1 19 1.596Zm-1.583 17.558A1.59 1.59 0 0 0 19 17.558a1.59 1.59 0 0 0-1.583-1.597 1.59 1.59 0 0 0-1.584 1.597 1.59 1.59 0 0 0 1.584 1.596ZM19 33.519a1.59 1.59 0 0 1-1.583 1.596 1.59 1.59 0 0 1-1.584-1.596 1.59 1.59 0 0 1 1.584-1.596A1.59 1.59 0 0 1 19 33.52Zm-1.583 17.558A1.59 1.59 0 0 0 19 49.48a1.59 1.59 0 0 0-1.583-1.596 1.59 1.59 0 0 0-1.584 1.596 1.59 1.59 0 0 0 1.584 1.596ZM19 65.442a1.59 1.59 0 0 1-1.583 1.597 1.59 1.59 0 0 1-1.584-1.597 1.59 1.59 0 0 1 1.584-1.596A1.59 1.59 0 0 1 19 65.442ZM17.417 83A1.59 1.59 0 0 0 19 81.404a1.59 1.59 0 0 0-1.583-1.596 1.59 1.59 0 0 0-1.584 1.596A1.59 1.59 0 0 0 17.417 83ZM3.192 113.417a1.59 1.59 0 0 0-1.596-1.584A1.59 1.59 0 0 0 0 113.417 1.59 1.59 0 0 0 1.596 115a1.59 1.59 0 0 0 1.596-1.583Zm15.962 0a1.59 1.59 0 0 0-1.596-1.584 1.59 1.59 0 0 0-1.597 1.584A1.59 1.59 0 0 0 17.558 115a1.59 1.59 0 0 0 1.596-1.583Zm14.365-1.584a1.59 1.59 0 0 1 1.596 1.584A1.59 1.59 0 0 1 33.52 115a1.59 1.59 0 0 1-1.596-1.583 1.59 1.59 0 0 1 1.596-1.584Zm17.558 1.584a1.59 1.59 0 0 0-1.596-1.584 1.59 1.59 0 0 0-1.596 1.584A1.59 1.59 0 0 0 49.48 115a1.59 1.59 0 0 0 1.596-1.583Zm14.365-1.584a1.59 1.59 0 0 1 1.597 1.584A1.59 1.59 0 0 1 65.442 115a1.59 1.59 0 0 1-1.596-1.583 1.59 1.59 0 0 1 1.596-1.584ZM83 113.417a1.59 1.59 0 0 0-1.596-1.584 1.59 1.59 0 0 0-1.596 1.584A1.59 1.59 0 0 0 81.404 115 1.59 1.59 0 0 0 83 113.417ZM1.596 96a1.59 1.59 0 0 1 1.596 1.583 1.59 1.59 0 0 1-1.596 1.584A1.59 1.59 0 0 1 0 97.583 1.59 1.59 0 0 1 1.596 96Zm17.558 1.583A1.59 1.59 0 0 0 17.558 96a1.59 1.59 0 0 0-1.597 1.583 1.59 1.59 0 0 0 1.597 1.584 1.59 1.59 0 0 0 1.596-1.584ZM33.519 96a1.59 1.59 0 0 1 1.596 1.583 1.59 1.59 0 0 1-1.596 1.584 1.59 1.59 0 0 1-1.596-1.584A1.59 1.59 0 0 1 33.52 96Zm17.558 1.583A1.59 1.59 0 0 0 49.48 96a1.59 1.59 0 0 0-1.596 1.583 1.59 1.59 0 0 0 1.596 1.584 1.59 1.59 0 0 0 1.596-1.584ZM65.442 96a1.59 1.59 0 0 1 1.597 1.583 1.59 1.59 0 0 1-1.597 1.584 1.59 1.59 0 0 1-1.596-1.584A1.59 1.59 0 0 1 65.442 96ZM83 97.583A1.59 1.59 0 0 0 81.404 96a1.59 1.59 0 0 0-1.596 1.583 1.59 1.59 0 0 0 1.596 1.584A1.59 1.59 0 0 0 83 97.583Z" fill="#fff"/></svg>